<?xml version="1.0" encoding="UTF-8"?><svg id="uuid-27ad8ed1-e05d-41ba-95ef-48dd6251eda9" xmlns="http://www.w3.org/2000/svg" viewBox="0 0 935.598 369.782"><g id="uuid-4f95f587-a3c0-4827-be0a-e53294c073fe"><path d="m96.461,81.05c-4.016,2.401-8.321-2.664-5.297-6.235,12.527-14.796,31.665-34.918,52.073-47.256C174.011,8.955,215.467-4.877,251.644,1.633c16.318,2.936,32.139,10.933,42.219,24.098,10.93,14.275,14.168,33.372,11.913,51.21-3.286,26.004-17.183,49.487-33.167,70.26-35.28,45.85-81.52,81.926-129.45,114.464-1.788,1.214-.619,4.005,1.502,3.589,39.957-7.845,80.807-14.667,120.763-7.567,9.209,1.637,18.888,4.361,25.014,11.429,5.758,6.643,7.317,16.154,5.97,24.841-1.283,8.278-4.913,15.984-8.877,23.378-.359.67-1.072,1.071-1.832,1.038-77.662-3.356-156.068,11.902-226.8,44.149-8.802,4.013-18.155,8.395-27.727,6.992-9.545-1.399-17.509-8.53-22.172-16.976-4.663-8.446-6.5-18.13-7.899-27.676-1.206-8.23-2.083-16.921,1.064-24.621,3.14-7.682,9.828-13.259,16.357-18.383,60.179-47.227,128.311-84.096,185.403-135.013,18.905-16.86,36.777-35.567,48.122-58.215,6.404-12.785,10.869-30.153,3.429-43.464-7.796-13.948-25.618-15.779-39.995-14.412-22.582,2.147-43.804,11.283-64.317,20.968-21.693,10.242-41.098,21.192-54.703,29.326Z" style="fill:#3498db; stroke-width:0px;"/><path d="m80.018,131.217c1.147-1.011,1.764-2.494,1.674-4.021-.091-1.527-.88-2.926-2.139-3.794l-14.448-9.956h0c-.398-.274-.648-.718-.677-1.201-.029-.483.167-.952.53-1.272l7.922-6.982,7.573.477c.832.052,1.651-.228,2.276-.779l2.282-2.011c.817-.72,1.203-1.813,1.02-2.886s-.909-1.976-1.919-2.385l-6.859-2.777h0c-.917-.372-1.606-1.153-1.859-2.11l-1.894-7.153c-.278-1.053-1.083-1.886-2.125-2.203s-2.174-.071-2.991.65l-2.282,2.011c-.625.551-1.006,1.328-1.059,2.16l-.477,7.573-7.922,6.982c-.363.32-.853.455-1.329.366-.476-.089-.884-.393-1.107-.823l-8.063-15.584h0c-.756-1.462-2.187-2.454-3.821-2.649-1.634-.195-3.258.431-4.338,1.673-1.079,1.242-1.474,2.938-1.053,4.528l5.912,22.333c.149.564.139,1.159-.031,1.718-.17.559-.491,1.059-.93,1.445l-12.691,11.186c-1.389,1.225-2.168,3-2.128,4.851.039,1.852.892,3.592,2.332,4.757,1.219.925,2.724,1.393,4.254,1.32,1.529-.073,2.983-.681,4.109-1.718l12.438-10.963c.438-.386.975-.642,1.55-.741s1.166-.034,1.708.185l21.413,8.67c.855.346,1.789.447,2.698.292.909-.155,1.757-.56,2.449-1.17h0Z" style="fill:#2c3e50; stroke-width:0px;"/><path d="m827.609,121.102l36.825-26.832c1.317-.964,1.06-2.956-.418-3.631l-6.78-3.021c-1.028-.45-1.478-1.575-1.125-2.603l6.78-20.051c.514-1.575-.868-3.117-2.506-2.699l-17.963,4.242c-1.125.257-2.281-.45-2.539-1.575l-1.671-7.326c-.353-1.639-2.442-2.185-3.567-.964l-17.481,18.477c-1.414,1.542-4.017.193-3.567-1.896l7.68-37.725c.353-1.832-1.639-3.149-3.149-2.185l-8.258,5.206c-1.06.675-2.506.257-3.021-.932l-10.765-23.265c-.771-1.639-3.053-1.639-3.824,0l-10.893,23.329c-.514,1.157-1.928,1.575-3.021.932l-8.258-5.206c-1.575-.964-3.567.418-3.149,2.185l7.68,37.725c.418,2.089-2.153,3.406-3.567,1.896l-17.481-18.541c-1.157-1.221-3.213-.675-3.567.964l-1.767,7.326c-.257,1.125-1.382,1.832-2.539,1.575l-17.963-4.242c-1.639-.353-3.021,1.157-2.506,2.699l6.78,20.051c.353,1.028-.161,2.153-1.125,2.603l-6.78,3.021c-1.478.675-1.671,2.635-.418,3.631l36.825,26.832c.803.611,1.125,1.671.675,2.603l-4.884,10.186c-.707,1.542.546,3.246,2.185,3.021l30.141-4.595c1.317-.193,2.539.932,2.378,2.249l-3.246,19.24c-.096,1.221.868,2.281,2.089,2.281h8.226c1.221,0,2.185-1.06,2.089-2.281l-3.213-19.24c-.096-1.382,1.06-2.442,2.378-2.249l30.141,4.595c1.671.257,2.956-1.478,2.185-3.021l-4.884-10.186c-.289-.9.032-2.024.835-2.603Z" style="fill:#f20519; stroke-width:0px;"/><path d="m426.144,15.612h28.98l-49.561,141.54h-28.56L327.444,15.612h28.979l24.149,75.6,10.5,38.221h.421l10.5-38.221,24.149-75.6Z" style="fill:#f20519; stroke-width:0px;"/><path d="m474.022,13.092c5.178,0,9.168,1.506,11.971,4.515,2.799,3.012,4.199,6.546,4.199,10.605s-1.4,7.596-4.199,10.605c-2.803,3.012-6.793,4.515-11.971,4.515s-9.171-1.503-11.97-4.515c-2.802-3.009-4.2-6.543-4.2-10.605s1.398-7.593,4.2-10.605c2.799-3.009,6.789-4.515,11.97-4.515Zm13.44,144.06h-26.88V55.722h26.88v101.43Z" style="fill:#f20519; stroke-width:0px;"/><path d="m534.5,138.883c5.88,0,10.113-.873,12.705-2.625,2.589-1.749,3.885-4.164,3.885-7.245,0-4.06-1.89-7.141-5.67-9.24-3.779-2.101-8.609-4.059-14.489-5.88-4.342-1.26-8.4-2.694-12.181-4.306-3.779-1.607-7.071-3.639-9.87-6.09-2.802-2.447-5.007-5.354-6.614-8.715-1.611-3.36-2.415-7.419-2.415-12.18,0-9.099,3.569-16.275,10.71-21.525,7.14-5.25,16.868-7.875,29.189-7.875,5.88,0,11.829.525,17.851,1.575,6.018,1.05,11.688,2.976,17.01,5.775l-6.09,19.739c-4.062-2.1-8.473-3.675-13.23-4.725-4.761-1.05-9.45-1.575-14.069-1.575-5.322,0-9.172.735-11.551,2.205-2.382,1.47-3.569,3.606-3.569,6.405,0,3.081,1.364,5.46,4.095,7.14,2.729,1.68,6.333,3.291,10.814,4.83,5.881,1.962,11.059,3.957,15.54,5.985,4.479,2.031,8.26,4.41,11.341,7.14,3.077,2.73,5.424,5.88,7.034,9.45,1.608,3.57,2.415,7.806,2.415,12.705,0,8.541-3.569,15.645-10.71,21.314-7.14,5.67-17.502,8.505-31.08,8.505-6.72,0-13.302-.666-19.739-1.994-6.441-1.329-12.111-3.256-17.011-5.775l6.091-20.16c3.917,1.962,8.505,3.643,13.755,5.04,5.25,1.401,10.532,2.101,15.854,2.101Z" style="fill:#f20519; stroke-width:0px;"/><path d="m602.12,13.092c5.178,0,9.168,1.506,11.971,4.515,2.799,3.012,4.199,6.546,4.199,10.605s-1.4,7.596-4.199,10.605c-2.803,3.012-6.793,4.515-11.971,4.515s-9.171-1.503-11.97-4.515c-2.802-3.009-4.2-6.543-4.2-10.605s1.398-7.593,4.2-10.605c2.799-3.009,6.789-4.515,11.97-4.515Zm13.44,144.06h-26.88V55.722h26.88v101.43Z" style="fill:#f20519; stroke-width:0px;"/><path d="m662.809,126.282c0,4.2.84,7.245,2.521,9.135,1.68,1.891,4.269,2.835,7.77,2.835,4.62,0,9.24-1.607,13.86-4.83l5.46,19.53c-3.501,2.241-7.176,3.921-11.025,5.04-3.852,1.119-8.157,1.68-12.915,1.68-11.34,0-19.497-2.729-24.465-8.189-4.971-5.46-7.455-13.929-7.455-25.41v-51.45h-15.54v-18.9h15.96l6.301-28.98h19.529v28.98h28.771v18.9h-28.771v51.66Z" style="fill:#f20519; stroke-width:0px;"/><path d="m395.275,334.97c-10.92,0-20.616-1.856-29.085-5.564-8.473-3.708-15.576-8.853-21.315-15.436-5.742-6.578-10.08-14.349-13.02-23.31-2.94-8.958-4.41-18.618-4.41-28.979s1.47-20.02,4.41-28.98c2.939-8.958,7.277-16.728,13.02-23.31,5.739-6.579,12.843-11.724,21.315-15.435,8.469-3.708,18.165-5.565,29.085-5.565,7.697,0,14.769.771,21.21,2.31,6.438,1.542,12.669,3.921,18.689,7.14l-6.72,20.79c-9.942-5.319-20.301-7.98-31.08-7.98-14.143,0-24.78,4.482-31.92,13.44-7.14,8.96-10.71,21.492-10.71,37.59s3.603,28.632,10.814,37.59c7.209,8.961,17.814,13.439,31.815,13.439,4.2,0,9.204-.698,15.015-2.1,5.809-1.398,11.583-3.639,17.325-6.72l6.3,21c-5.601,3.222-11.864,5.706-18.795,7.454-6.93,1.749-14.247,2.625-21.944,2.625Z" style="fill:#f20519; stroke-width:0px;"/><path d="m436.646,303.891c0-6.438,1.082-11.898,3.255-16.381,2.169-4.479,5.25-8.117,9.239-10.92,3.99-2.799,8.854-4.83,14.596-6.09,5.738-1.26,12.18-1.89,19.319-1.89h14.28v-3.36c0-10.778-6.162-16.17-18.479-16.17-5.742,0-11.025.735-15.855,2.205s-9.486,3.537-13.965,6.195l-5.88-18.48c4.338-2.939,9.938-5.424,16.8-7.455,6.857-2.028,14.208-3.045,22.05-3.045,14.139,0,24.57,3.36,31.29,10.08s10.08,16.102,10.08,28.14v65.73h-23.1l-2.94-13.23c-1.26,1.963-2.729,3.886-4.41,5.775-1.68,1.89-3.711,3.57-6.09,5.04-2.382,1.47-5.112,2.658-8.189,3.57-3.082.908-6.583,1.364-10.5,1.364-4.342,0-8.4-.702-12.181-2.1s-7.107-3.465-9.975-6.195c-2.871-2.729-5.146-5.984-6.825-9.765s-2.52-8.118-2.52-13.02Zm60.689-17.641h-14.49c-6.72,0-11.9,1.47-15.54,4.41-3.642,2.94-5.46,7.071-5.46,12.39,0,3.78,1.119,6.825,3.36,9.136,2.237,2.31,5.04,3.465,8.4,3.465,3.497,0,6.72-.663,9.659-1.995,2.94-1.329,5.46-3.114,7.561-5.355,2.1-2.237,3.708-4.83,4.83-7.77,1.119-2.94,1.68-6.018,1.68-9.24v-5.04Z" style="fill:#f20519; stroke-width:0px;"/><path d="m567.053,332.451h-26.881v-101.43h23.94l2.94,13.23c1.538-1.68,3.465-3.465,5.774-5.354,2.311-1.891,4.863-3.604,7.665-5.146,2.799-1.539,5.913-2.799,9.345-3.78,3.43-.978,7.035-1.47,10.815-1.47,9.938,0,17.883,3.501,23.835,10.5,5.949,7.002,8.925,16.872,8.925,29.61v63.84h-26.88v-63c0-6.438-1.122-11.304-3.36-14.595-2.24-3.288-6.021-4.936-11.34-4.936-4.902,0-9.555,1.401-13.965,4.2-4.41,2.803-8.016,5.88-10.814,9.24v69.09Z" style="fill:#f20519; stroke-width:0px;"/><path d="m643.069,303.891c0-6.438,1.083-11.898,3.255-16.381,2.169-4.479,5.25-8.117,9.24-10.92,3.99-2.799,8.853-4.83,14.595-6.09,5.739-1.26,12.181-1.89,19.32-1.89h14.28v-3.36c0-10.778-6.162-16.17-18.48-16.17-5.742,0-11.024.735-15.854,2.205s-9.486,3.537-13.965,6.195l-5.88-18.48c4.337-2.939,9.938-5.424,16.8-7.455,6.857-2.028,14.208-3.045,22.05-3.045,14.139,0,24.57,3.36,31.29,10.08s10.08,16.102,10.08,28.14v65.73h-23.101l-2.939-13.23c-1.26,1.963-2.73,3.886-4.41,5.775s-3.711,3.57-6.09,5.04c-2.383,1.47-5.112,2.658-8.19,3.57-3.081.908-6.582,1.364-10.5,1.364-4.341,0-8.399-.702-12.18-2.1s-7.107-3.465-9.975-6.195c-2.871-2.729-5.146-5.984-6.825-9.765-1.681-3.78-2.521-8.118-2.521-13.02Zm60.69-17.641h-14.49c-6.72,0-11.901,1.47-15.54,4.41-3.642,2.94-5.46,7.071-5.46,12.39,0,3.78,1.119,6.825,3.36,9.136,2.237,2.31,5.04,3.465,8.399,3.465,3.498,0,6.721-.663,9.66-1.995,2.94-1.329,5.46-3.114,7.561-5.355,2.1-2.237,3.707-4.83,4.83-7.77,1.118-2.94,1.68-6.018,1.68-9.24v-5.04Z" style="fill:#f20519; stroke-width:0px;"/><path d="m838.787,332.451h-23.939l-2.94-13.23c-2.939,4.062-6.615,7.701-11.025,10.921-4.409,3.219-10.185,4.829-17.324,4.829-6.021,0-11.655-1.19-16.905-3.569s-9.837-5.88-13.755-10.5c-3.921-4.62-7.002-10.254-9.24-16.905-2.241-6.647-3.36-14.175-3.36-22.575,0-6.999.909-13.719,2.73-20.16,1.817-6.438,4.515-12.074,8.085-16.904s7.98-8.679,13.23-11.551c5.25-2.867,11.304-4.305,18.164-4.305,7.561,0,13.65,1.647,18.271,4.936,4.62,3.291,8.328,6.896,11.13,10.814v-53.34h26.88v141.54Zm-26.88-69.09c-2.52-3.78-5.496-6.963-8.925-9.555-3.433-2.59-7.737-3.886-12.915-3.886-6.3,0-11.691,2.73-16.17,8.19-4.482,5.46-6.72,13.229-6.72,23.31,0,5.88.594,10.852,1.784,14.91,1.188,4.062,2.835,7.351,4.936,9.87,2.1,2.52,4.548,4.377,7.35,5.565,2.799,1.19,5.739,1.784,8.82,1.784,6.438,0,11.688-2.589,15.75-7.77,4.059-5.178,6.09-12.18,6.09-21v-21.42Z" style="fill:#f20519; stroke-width:0px;"/><path d="m848.867,303.891c0-6.438,1.083-11.898,3.255-16.381,2.169-4.479,5.25-8.117,9.24-10.92,3.99-2.799,8.853-4.83,14.595-6.09,5.739-1.26,12.181-1.89,19.32-1.89h14.28v-3.36c0-10.778-6.162-16.17-18.48-16.17-5.742,0-11.024.735-15.854,2.205s-9.486,3.537-13.965,6.195l-5.88-18.48c4.337-2.939,9.938-5.424,16.8-7.455,6.857-2.028,14.208-3.045,22.05-3.045,14.139,0,24.57,3.36,31.29,10.08s10.08,16.102,10.08,28.14v65.73h-23.101l-2.939-13.23c-1.26,1.963-2.73,3.886-4.41,5.775s-3.711,3.57-6.09,5.04c-2.383,1.47-5.112,2.658-8.19,3.57-3.081.908-6.582,1.364-10.5,1.364-4.341,0-8.399-.702-12.18-2.1s-7.107-3.465-9.975-6.195c-2.871-2.729-5.146-5.984-6.825-9.765-1.681-3.78-2.521-8.118-2.521-13.02Zm60.69-17.641h-14.49c-6.72,0-11.901,1.47-15.54,4.41-3.642,2.94-5.46,7.071-5.46,12.39,0,3.78,1.119,6.825,3.36,9.136,2.237,2.31,5.04,3.465,8.399,3.465,3.498,0,6.721-.663,9.66-1.995,2.94-1.329,5.46-3.114,7.561-5.355,2.1-2.237,3.707-4.83,4.83-7.77,1.118-2.94,1.68-6.018,1.68-9.24v-5.04Z" style="fill:#f20519; stroke-width:0px;"/></g></svg>