<?xml version="1.0" encoding="utf-8"?>
<!-- Generator: Adobe Illustrator 26.3.1, SVG Export Plug-In . SVG Version: 6.00 Build 0)  -->
<svg version="1.1" id="Layer_2" xmlns="http://www.w3.org/2000/svg" xmlns:xlink="http://www.w3.org/1999/xlink" x="0px" y="0px"
	 viewBox="0 0 1969.5 1626" enable-background="new 0 0 1969.5 1626" xml:space="preserve">
<path fill="#F3F8FF" d="M112,1581.5c0,0-99.2-314.9-50.2-533.5c49-218.6,296.4-231.6,255.4-506.9s312.4-659.4,933.3-506.2
	s661.8,638.4,639.3,794.6c-22.5,156.2-75.6,139.5,14.3,314.9s-53.2,437.1-53.2,437.1H112z"/>
<g>
	<g>
		<g>
			<g>
				<g>
					<path fill="#6BA336" d="M1716.6,1118.2c0,0,124.1-6.2,196.8-104.8c72.8-98.7,72.5-159.4,12.2-136.9
						C1865.3,899,1748.9,1046.6,1716.6,1118.2z"/>
				</g>
			</g>
		</g>
		<path fill="#417F73" d="M1925.9,905.2c-0.8-0.5-1.9-0.2-2.4,0.6c-0.2,0.4-21.9,35.9-54.5,76.3c-0.4,0.5-0.8,1-1.2,1.5l9.6-51.6
			c0.2-0.9-0.5-1.8-1.4-2c-0.9-0.2-1.8,0.4-2,1.3l-10.8,57.9c-10.9,13.2-23.5,27.4-37.3,41.2l19.1-51.5c0.3-0.9-0.1-1.9-1-2.2
			c-0.9-0.3-1.9,0.1-2.2,1l-21.6,58.5c-22.7,22.1-48.2,42.5-74.2,54.9c-0.8,0.4-1.2,1.4-0.8,2.2c0,0,0,0,0,0.1
			c0.4,0.8,1.5,1.2,2.3,0.8c13.9-6.6,27.5-15.4,40.8-25.6c0,0,0.1,0,0.1,0l104.6-52.1c0.8-0.4,1.2-1.4,0.7-2.3
			c-0.4-0.8-1.5-1.2-2.3-0.8l-90.5,45.1c7.5-6.3,14.8-13,21.8-19.8c0.2-0.1,0.5-0.3,0.6-0.6c16.7-16.3,31.9-33.4,44.6-48.8
			l55.8-24.4c0.9-0.4,1.2-1.4,0.8-2.2c0,0,0,0,0,0c-0.4-0.9-1.4-1.2-2.3-0.9l-49.6,21.7c32.4-40.3,53.9-75.6,54.1-76
			C1927,906.8,1926.7,905.7,1925.9,905.2z"/>
	</g>
	<g>
		<g>
			<g>
				<g>
					<path fill="#A4C931" d="M1723,1130.1c0,0,140.9-112.3,142.1-294.6c1.2-182.3-51.2-256.4-102.9-177.9
						C1710.4,736.1,1699.6,1015.1,1723,1130.1z"/>
				</g>
			</g>
		</g>
		<path fill="#6BA336" d="M1842.3,853.2c-1.2-0.6-2.8-0.2-3.4,1.1l-68,131.7c3.4-14.1,6.3-28.3,8.7-42.6c0.2-0.4,0.2-0.8,0.2-1.2
			c5.7-34,8.9-67.8,10.7-97.4l44.8-76.9c0.7-1.2,0.3-2.7-0.9-3.4c-1.2-0.7-2.7-0.3-3.4,0.9l-39.9,68.4c3.7-76.7-1.2-138.1-1.3-138.7
			c-0.1-1.4-1.3-2.4-2.7-2.3c-1.4,0.1-2.4,1.3-2.3,2.7c0.1,0.6,5,62.4,1.2,139.5c0,0.9-0.1,1.9-0.1,2.8l-32.9-71.4
			c-0.6-1.3-2.1-1.8-3.4-1.3c-1.3,0.6-1.8,2-1.2,3.3l36.9,80c-1.6,25.3-4.2,53.4-8.6,82l-21.7-79.2c-0.4-1.3-1.8-2.1-3.1-1.8
			c-1.3,0.3-2.1,1.7-1.8,3.1l24.6,89.9c-7.8,46.2-20.4,92.8-40.4,129.9c-0.7,1.2-0.2,2.7,1,3.4c1.1,0.6,2.5,0.3,3.3-0.7
			c0.1-0.1,0.1-0.2,0.2-0.3c10.7-19.8,19.2-42.2,26.1-65.7c0,0,0-0.1,0.1-0.1l78.5-152.1C1844.1,855.3,1843.6,853.8,1842.3,853.2z"
			/>
	</g>
	<g>
		<g>
			<g>
				<g>
					<path fill="#A4C931" d="M1739.8,1595.6c0,0,89.5-43.4,112.3-141.4c22.8-98,3.5-144.3-33.8-108.3
						C1780.8,1381.9,1741.2,1530.8,1739.8,1595.6z"/>
				</g>
			</g>
		</g>
		<path fill="#6BA336" d="M1837.7,1460.9c-0.6-0.5-1.5-0.4-2,0.2l-52.6,62.7c3.5-7.2,6.8-14.5,9.9-21.9c0.1-0.2,0.2-0.4,0.3-0.6
			c7.2-17.6,13-35.4,17.6-51.2l33.5-36c0.5-0.6,0.5-1.4-0.1-2c-0.6-0.5-1.4-0.5-2,0.1l-29.8,32c11.3-40.9,16.1-74.5,16.1-74.9
			c0.1-0.8-0.4-1.5-1.2-1.6c-0.8-0.1-1.5,0.4-1.6,1.2c0,0.3-4.9,34.2-16.3,75.3c-0.1,0.5-0.3,1-0.4,1.5l-9-42.4
			c-0.2-0.8-0.9-1.2-1.7-1.1c-0.8,0.1-1.2,0.9-1.1,1.6l10.1,47.6c-3.9,13.4-8.7,28.2-14.6,43.1l-2.1-45.3c0-0.8-0.7-1.4-1.5-1.3
			c-0.8,0-1.4,0.7-1.3,1.4l2.4,51.4c-9.8,23.9-22.2,47.5-37.5,65c-0.5,0.6-0.4,1.5,0.2,2c0.5,0.5,1.3,0.5,1.8,0c0,0,0.1-0.1,0.1-0.1
			c8.1-9.4,15.5-20.4,22-32.2c0,0,0,0,0.1-0.1l60.7-72.4C1838.3,1462.3,1838.2,1461.4,1837.7,1460.9z"/>
	</g>
	<g>
		<g>
			<g>
				<g>
					<path fill="#6BA336" d="M1737.8,1588.4c0,0,67.5,11.7,118.7-32.6c51.2-44.3,58.4-77.1,23.2-72.2S1763.9,1553.7,1737.8,1588.4z"
						/>
				</g>
			</g>
		</g>
		<path fill="#417F73" d="M1876.3,1499.1c-0.4-0.4-1-0.4-1.3,0c-0.2,0.2-16.1,16.7-38.6,34.5c-0.3,0.2-0.6,0.4-0.8,0.7l11.5-26.6
			c0.2-0.5,0-1-0.5-1.2c-0.5-0.2-1,0-1.2,0.5l-12.8,29.9c-7.5,5.8-16,11.9-25.1,17.7l16.5-25.4c0.3-0.4,0.1-1-0.3-1.3
			c-0.4-0.3-1-0.2-1.3,0.3l-18.8,28.9c-14.9,9.1-31.1,17-46.6,20.5c-0.5,0.1-0.8,0.6-0.7,1.1c0,0,0,0,0,0c0.1,0.5,0.6,0.8,1.2,0.7
			c8.3-1.9,16.7-5,25.1-8.8c0,0,0,0,0,0l62.6-15.4c0.5-0.1,0.8-0.6,0.7-1.1c-0.1-0.5-0.7-0.8-1.2-0.7l-54.2,13.3
			c4.8-2.5,9.5-5.2,14.1-8c0.1,0,0.3-0.1,0.4-0.2c11-6.7,21.2-14.1,29.9-20.9l33-6.4c0.5-0.1,0.8-0.6,0.7-1.1c0,0,0,0,0,0
			c-0.1-0.5-0.6-0.8-1.1-0.7l-29.3,5.6c22.4-17.8,38.2-34.2,38.4-34.3C1876.7,1500.1,1876.7,1499.5,1876.3,1499.1z"/>
	</g>
</g>
<g>
	<g>
		<path fill="#8CB8ED" d="M553.9,533.1c-4.2-12.4-15.9-20.7-29-20.7h-23.9c0,0-6.2-40.5-46.2-40.5c-40.1,0-46.3,40.5-46.3,40.5
			h-23.9c-13.1,0-24.7,8.3-29,20.7l-11,32.2H565L553.9,533.1z M454.8,522.4c-8.6,0-15.6-7-15.6-15.6c0-8.6,7-15.6,15.6-15.6
			c8.6,0,15.6,7,15.6,15.6C470.4,515.4,463.4,522.4,454.8,522.4z"/>
		<path fill="#6983CC" d="M784.8,612v922.2c0,26-21.1,47-47,47h-563c-26,0-47-21.1-47-47V612c0-26,21.1-47,47-47h563
			C763.8,565,784.8,586.1,784.8,612z"/>
		<g>
			<path fill="#FCFCFC" d="M751.1,622.7v900.9c0,11.6-9.4,21-21,21H182.4c-11.6,0-21-9.4-21-21V622.7c0-0.4,0-0.9,0-1.3
				c0.7-11,9.8-19.7,20.9-19.7h547.7c11.1,0,20.3,8.7,20.9,19.7C751.1,621.8,751.1,622.3,751.1,622.7z"/>
		</g>
		<path fill="#F3F8FF" d="M203.7,1544.5h-21.3c-11.6,0-21-9.4-21-21V622.7c0-0.4,0-0.9,0-1.3c0.7-11,9.8-19.7,20.9-19.7h21.3
			c-11.1,0-20.3,8.7-20.9,19.7c0,0.4,0,0.9,0,1.3v900.9C182.7,1535.1,192.1,1544.5,203.7,1544.5z"/>
		<g>
			<path fill="#A6CAF4" d="M454.4,890c0,0-108.2-35.8-115.6-130.3c-7.4-94.5,90-88,115.8-52.1c0,0,51.5-50.3,100.2-3
				C603.5,752,533,859.9,454.4,890z"/>
			<g>
				<path fill="#FCFCFC" d="M455.1,819.6c-0.1,0-0.3,0-0.4,0c-2.2-0.2-3.9-1.7-4.2-3.9l-13.1-74.1l-12.6,43c-0.6,2-2.4,3.4-4.5,3.4
					h-18.5l-7,16.4c-0.8,1.8-2.6,2.9-4.6,2.8c-2-0.1-3.7-1.4-4.2-3.3l-10.4-33.6l-9,15.5c-0.8,1.5-2.4,2.4-4.1,2.4H311
					c-1.7,0-3.1-1.4-3.1-3.1c0-1.7,1.4-3.1,3.1-3.1h50.6l10.3-17.8c0.9-1.6,2.7-2.5,4.6-2.3c1.9,0.2,3.4,1.5,4,3.3l10.2,32.9
					l5.8-13.5c0.7-1.7,2.4-2.8,4.3-2.8h18.3l14.1-48.2c0.6-2.1,2.6-3.5,4.8-3.4c2.2,0.1,4,1.7,4.4,3.9l13.2,74.8l8.1-23.2
					c0.7-1.9,2.4-3.1,4.4-3.1h31.8c2.2,0,4.1,1.5,4.6,3.6l1.8,7.6l14-30.4c0.8-1.8,2.7-2.9,4.7-2.7c2,0.2,3.6,1.6,4.1,3.5l5.7,23.2
					h47.4c1.7,0,3.1,1.4,3.1,3.1s-1.4,3.1-3.1,3.1h-48.5c-2.2,0-4-1.5-4.6-3.6l-5-20.1l-14,30.4c-0.8,1.8-2.7,2.9-4.7,2.7
					c-2-0.2-3.6-1.6-4.1-3.6l-2.6-10.7h-29.5l-9.7,27.7C458.8,818.3,457.1,819.6,455.1,819.6z"/>
			</g>
		</g>
		<g>
			<g>
				<path fill="#CDDFF9" d="M291.1,1033.8h-49.3c-7.8,0-14-6.3-14-14v-36.5c0-7.8,6.3-14,14-14h49.3c7.8,0,14,6.3,14,14v36.5
					C305.2,1027.5,298.9,1033.8,291.1,1033.8z"/>
				<g>
					<path fill="#CDDFF9" d="M663.6,994.1H350.8c-6.9,0-12.4-5.6-12.4-12.4l0,0c0-6.9,5.6-12.4,12.4-12.4h312.7
						c6.9,0,12.4,5.6,12.4,12.4l0,0C676,988.5,670.4,994.1,663.6,994.1z"/>
					<path fill="#A6CAF4" d="M618.5,1022.3H345.1c-3.7,0-6.7-3-6.7-6.7l0,0c0-3.7,3-6.7,6.7-6.7h273.4c3.7,0,6.7,3,6.7,6.7l0,0
						C625.2,1019.3,622.2,1022.3,618.5,1022.3z"/>
				</g>
			</g>
			<g>
				<path fill="#CDDFF9" d="M291.1,1160.5h-49.3c-7.8,0-14-6.3-14-14V1110c0-7.8,6.3-14,14-14h49.3c7.8,0,14,6.3,14,14v36.5
					C305.2,1154.3,298.9,1160.5,291.1,1160.5z"/>
				<g>
					<path fill="#CDDFF9" d="M663.6,1120.8H350.8c-6.9,0-12.4-5.6-12.4-12.4v0c0-6.9,5.6-12.4,12.4-12.4h312.7
						c6.9,0,12.4,5.6,12.4,12.4v0C676,1115.3,670.4,1120.8,663.6,1120.8z"/>
					<path fill="#A6CAF4" d="M618.5,1149.1H345.1c-3.7,0-6.7-3-6.7-6.7l0,0c0-3.7,3-6.7,6.7-6.7h273.4c3.7,0,6.7,3,6.7,6.7l0,0
						C625.2,1146.1,622.2,1149.1,618.5,1149.1z"/>
				</g>
			</g>
			<g>
				<path fill="#CDDFF9" d="M291.1,1287.3h-49.3c-7.8,0-14-6.3-14-14v-36.5c0-7.8,6.3-14,14-14h49.3c7.8,0,14,6.3,14,14v36.5
					C305.2,1281,298.9,1287.3,291.1,1287.3z"/>
				<g>
					<path fill="#CDDFF9" d="M663.6,1247.6H350.8c-6.9,0-12.4-5.6-12.4-12.4l0,0c0-6.9,5.6-12.4,12.4-12.4h312.7
						c6.9,0,12.4,5.6,12.4,12.4l0,0C676,1242,670.4,1247.6,663.6,1247.6z"/>
					<path fill="#A6CAF4" d="M618.5,1275.8H345.1c-3.7,0-6.7-3-6.7-6.7l0,0c0-3.7,3-6.7,6.7-6.7h273.4c3.7,0,6.7,3,6.7,6.7l0,0
						C625.2,1272.8,622.2,1275.8,618.5,1275.8z"/>
				</g>
			</g>
			<g>
				<path fill="#CDDFF9" d="M291.1,1414h-49.3c-7.8,0-14-6.3-14-14v-36.5c0-7.8,6.3-14,14-14h49.3c7.8,0,14,6.3,14,14v36.5
					C305.2,1407.8,298.9,1414,291.1,1414z"/>
				<g>
					<path fill="#CDDFF9" d="M663.6,1374.3H350.8c-6.9,0-12.4-5.6-12.4-12.4l0,0c0-6.9,5.6-12.4,12.4-12.4h312.7
						c6.9,0,12.4,5.6,12.4,12.4l0,0C676,1368.8,670.4,1374.3,663.6,1374.3z"/>
					<path fill="#A6CAF4" d="M618.5,1402.6H345.1c-3.7,0-6.7-3-6.7-6.7l0,0c0-3.7,3-6.7,6.7-6.7h273.4c3.7,0,6.7,3,6.7,6.7l0,0
						C625.2,1399.6,622.2,1402.6,618.5,1402.6z"/>
				</g>
			</g>
		</g>
		<path fill="#F3F8FF" d="M751.1,621.4H161.5c0.7-11,9.8-19.7,20.9-19.7h547.7C741.3,601.7,750.4,610.4,751.1,621.4z"/>
		<path fill="#8CB8ED" d="M579.9,621.4H332.7c-9.3,0-16.9-7.5-16.9-16.9v-42.6c0-9.3,7.5-16.9,16.9-16.9h247.2
			c9.3,0,16.9,7.5,16.9,16.9v42.6C596.7,613.8,589.2,621.4,579.9,621.4z"/>
		<path fill="#CDDFF9" d="M686.7,916.5h-470c-1.3,0-2.4-1.1-2.4-2.4c0-1.3,1.1-2.4,2.4-2.4h470c1.3,0,2.4,1.1,2.4,2.4
			C689.1,915.4,688,916.5,686.7,916.5z"/>
		<g>
			<path fill="#CDDFF9" d="M501,1505H394.5c-1.3,0-2.4-1.1-2.4-2.4c0-1.3,1.1-2.4,2.4-2.4H501c1.3,0,2.4,1.1,2.4,2.4
				C503.4,1504,502.3,1505,501,1505z"/>
			<path fill="#CDDFF9" d="M585.3,1505h-52.6c-1.3,0-2.4-1.1-2.4-2.4c0-1.3,1.1-2.4,2.4-2.4h52.6c1.3,0,2.4,1.1,2.4,2.4
				C587.7,1504,586.6,1505,585.3,1505z"/>
		</g>
	</g>
</g>
<g>
	<g>
		<path fill="#EF7F18" d="M1234,233c0,0,58,198.8,63.2,460.7c155.1-44.4,231.8-41.8,335.1-26.6c-48.5-167.1-198.2-389.5-198.2-389.5
			L1234,233z"/>
		<path fill="#CC673B" d="M1715,525.3c0,0-53.7-8.9-82.6,141.8c-73.5-174-141.6-278.5-188.2-336.3
			C1554.6,388.6,1683.4,467.8,1715,525.3z"/>
		<path fill="#CC673B" d="M1297.2,693.7c0,0-125.3-43.5-208.3-60.5c74.8-405,74.8-405,74.8-405l70.2,4.9
			C1234,233,1321,466.3,1297.2,693.7z"/>
		<path fill="#EF7F18" d="M1097.2,205c0,0-124.5,161.5-222.6,402.2c-128-102.4-200-130.3-301.2-157
			c104.4-135.8,322.4-282.9,322.4-282.9L1097.2,205z"/>
		<path fill="#CC673B" d="M547.3,286.1c0,0,53,13,26.1,164.1c130.1-132.3,230.4-202.3,294.2-237.4
			C744.7,222.7,597,245.3,547.3,286.1z"/>
		<path fill="#CC673B" d="M874.7,607.1c0,0,131.6,9.1,214.6,26.1c74.8-405,74.8-405,74.8-405l-66.9-23.2
			C1097.2,205,933.6,387,874.7,607.1z"/>
		<path fill="#FFB400" d="M1409,332c0,0,177.1,74.4,308.1,195.3c-155.9-247.5-213-263-290-310.7c-82.1-51.3-106.5-70.2-106.5-70.2
			S1398.6,226.2,1409,332z"/>
		<path fill="#1E377C" d="M1190.6,125.1c0,0,7.1-31.5-1.1-33.2c-8.1-1.7-13.3,30.2-13.3,30.2L1190.6,125.1z"/>
		<polygon fill="#1E377C" points="1029.3,917.4 1043.7,920.4 1169.8,237.7 1155.4,234.8 		"/>
		<path fill="#6983CC" d="M928.5,1162.2c42.6,8.7,84.3-22.7,93-69.9l31.4-170c1.9-10.1-4-19.7-13.1-21.6
			c-9.1-1.9-17.9,4.8-19.8,14.9l-31.4,170c-5,27.2-29,45.2-53.5,40.2c-24.5-5-40.3-31.2-35.3-58.4l8.3-44.9
			c1.9-10.1-4-19.7-13.1-21.6c-9.1-1.9-17.9,4.8-19.8,14.9l-8.3,44.9C858.4,1107.9,885.9,1153.5,928.5,1162.2z"/>
		<g>
			
				<rect x="1128.3" y="303.8" transform="matrix(0.7247 -0.6891 0.6891 0.7247 114.9306 900.8101)" fill="#FFB400" width="113" height="5.5"/>
			
				<rect x="1137.5" y="322.9" transform="matrix(0.9647 -0.2634 0.2634 0.9647 -42.0466 337.5256)" fill="#FFB400" width="201" height="5.5"/>
			
				<rect x="1301" y="196.6" transform="matrix(4.559235e-02 -0.999 0.999 4.559235e-02 885.1646 1645.496)" fill="#FFB400" width="5.5" height="325.7"/>
			
				<rect x="1206.5" y="301" transform="matrix(0.2815 -0.9596 0.9596 0.2815 511.8329 1427.7158)" fill="#FFB400" width="5.5" height="142.2"/>
			
				<rect x="1113.9" y="235" transform="matrix(0.908 -0.4189 0.4189 0.908 -19.8717 494.7003)" fill="#FFB400" width="5.5" height="115.1"/>
			
				<rect x="1057.8" y="187.2" transform="matrix(0.6154 -0.7882 0.7882 0.6154 179.9283 947.2515)" fill="#FFB400" width="5.5" height="204.2"/>
			
				<rect x="984.8" y="130.9" transform="matrix(0.35 -0.9368 0.9368 0.35 365.8515 1116.7109)" fill="#FFB400" width="5.5" height="327.7"/>
			
				<rect x="1067.9" y="272.8" transform="matrix(0.1182 -0.993 0.993 0.1182 602.8368 1366.2555)" fill="#FFB400" width="5.5" height="141.7"/>
		</g>
		<path fill="#F49E14" d="M1099.1,94.6c67.3,18.6,85.6,21.1,85.6,21.1s17.9,4.9,86.9,14.2c87.5,10.8,125.7,97.2,137.4,202
			c-79.5-34.1-250.8-72.8-250.8-72.8s-172.6-31.8-258.5-31.5C947.9,135.1,1014.1,70.1,1099.1,94.6z"/>
		<path fill="#FFB400" d="M899.7,227.6c0,0-190.7-0.9-355.1,59.4C777.2,119.2,835.7,127.4,924,113.5
			c94.4-15.2,123.7-23.1,123.7-23.1S947.1,133.7,899.7,227.6z"/>
		<path fill="#FFB400" d="M1122.2,385.4l26.3,5.4c0.4,0.1,0.8-0.2,0.9-0.7l9.4-51.1c0.1-0.5-0.2-0.9-0.6-1l-26.3-5.4
			c-0.4-0.1-0.8,0.2-0.9,0.7l-9.4,51.1C1121.5,384.9,1121.8,385.3,1122.2,385.4z"/>
	</g>
</g>
<g>
	<g>
		<path fill="#CDDFF9" d="M1640.7,1245.1H548.5c-51.6,0-93.5-41.9-93.5-93.5V835.1c0-51.6,41.9-93.5,93.5-93.5h1092.2
			c51.6,0,93.5,41.9,93.5,93.5v316.5C1734.2,1203.2,1692.3,1245.1,1640.7,1245.1z"/>
		<rect x="444.3" y="1150.7" fill="#A6CAF4" width="1201.2" height="174.6"/>
		<rect x="444.3" y="1325.3" fill="#8CB8ED" width="1201.2" height="16.8"/>
		<rect x="444.3" y="1342.2" fill="#A6CAF4" width="1201.2" height="208.3"/>
		<rect x="433.5" y="1150.2" fill="#8CB8ED" width="81.7" height="399.1"/>
		<rect x="1604.6" y="1150.2" fill="#8CB8ED" width="81.7" height="399.1"/>
		<g>
			<path fill="#A6CAF4" d="M475.7,1105.8v457.9c0,10.2-8.2,18.4-18.4,18.4h-92.5c-10.2,0-18.4-8.2-18.4-18.4v-457.9
				c0-10.2,8.2-18.4,18.4-18.4h92.5C467.5,1087.4,475.7,1095.7,475.7,1105.8z"/>
			<path fill="#A6CAF4" d="M499.1,1051.8v136.5c0,15.6-9.7,28.8-23.4,34.1c-4.1,1.6-8.5,2.4-13.1,2.4H359.5c-4.6,0-9-0.9-13.1-2.4
				c-13.7-5.3-23.4-18.6-23.4-34.1v-136.5c0-20.2,16.3-36.5,36.5-36.5h103.1C482.8,1015.3,499.1,1031.6,499.1,1051.8z"/>
			<ellipse fill="#8CB8ED" cx="407.1" cy="1089.7" rx="27.9" ry="30.4"/>
		</g>
		<g>
			<path fill="#A6CAF4" d="M1774.8,1105.8v457.9c0,10.2-8.2,18.4-18.4,18.4h-92.5c-10.2,0-18.4-8.2-18.4-18.4v-457.9
				c0-10.2,8.2-18.4,18.4-18.4h92.5C1766.5,1087.4,1774.8,1095.7,1774.8,1105.8z"/>
			<path fill="#A6CAF4" d="M1798.2,1051.8v136.5c0,15.6-9.7,28.8-23.4,34.1c-4.1,1.6-8.5,2.4-13.1,2.4h-103.1c-4.6,0-9-0.9-13.1-2.4
				c-13.7-5.3-23.4-18.6-23.4-34.1v-136.5c0-20.2,16.4-36.5,36.5-36.5h103.1C1781.9,1015.3,1798.2,1031.6,1798.2,1051.8z"/>
			<ellipse fill="#8CB8ED" cx="1706.2" cy="1089.7" rx="27.9" ry="30.4"/>
		</g>
		<path fill="#8CB8ED" d="M475.7,1222.4v51.2H346.4v-51.2c4.1,1.6,8.5,2.4,13.1,2.4h103.1C467.2,1224.8,471.6,1224,475.7,1222.4z"/>
		<path fill="#8CB8ED" d="M1774.8,1222.4v51.2h-129.3v-51.2c4.1,1.6,8.5,2.4,13.1,2.4h103.1
			C1766.3,1224.8,1770.7,1224,1774.8,1222.4z"/>
	</g>
	<g>
		<rect x="968.7" y="1155.5" fill="#8CB8ED" width="439.8" height="169.8"/>
		<rect x="968.7" y="1342.2" fill="#8CB8ED" width="439.8" height="204.8"/>
		<rect x="968.7" y="1325.3" fill="#6796DB" width="439.8" height="16.8"/>
		<path fill="#8CB8ED" d="M694.5,1150.7v174.6H589.4C619,1236.1,656.5,1153.7,694.5,1150.7z"/>
		<path fill="#8CB8ED" d="M694.5,1342.2v208.4H529.3c0,0,21.9-105.7,54.6-208.4H694.5z"/>
		<path fill="#6796DB" d="M694.5,1325.3v16.8H583.9c1.8-5.6,3.6-11.3,5.5-16.8H694.5z"/>
		<g>
			<g>
				<path fill="#050370" d="M1534.6,662.8c-57.8-40.3-11-64.6-16.9-108.9c-6-44.3-38.3-73.6-38.3-73.6l-109.9,31.3
					c0,0-67.9,44.7-70.4,153.6c-2.5,108.9,53.8,187,185.3,158.1C1615.8,794.5,1592.4,703.1,1534.6,662.8z M1332.9,712.5
					c-0.3-0.3-8.6-9.2-19.9-54.7c-11.3-45.6,21.2-98.8,22.1-100.2C1313.5,600.4,1332.7,711.2,1332.9,712.5z"/>
				<path fill="#050370" d="M1436.8,456.6c-10.5-4.6-31.7-8.6-76.5,14.5c-44.7,23.1-16.8,106.6-15.8,108.6c0,0,0,0,0,0
					s4.5,1.9,9.4,5.5c-0.2,5.8-1.1,11.5-3,16.9l0.8,0.2c1.7-5,2.7-10.1,3.2-15.3c5,4.6,9.2,10.7,8.8,18.1l0.4,0.1l64.4,76
					c0,0,7.1-9.8,12.9-39.9c5.8-30,57.3-52.6,56.7-112.7C1497.7,468.7,1436.8,456.6,1436.8,456.6z"/>
				<g>
					<g>
						<path fill="#FFBCAC" d="M1383.9,647.6l-30.9,19.6c0,0-14.2,39.1,8.1,50.1c22.2,11,22.8,9.5,51.5,6c28.7-3.4,40.9-54,40.9-54
							l3.6-0.8l-21.1-14.2l-38.3,24L1383.9,647.6z"/>
					</g>
				</g>
				<path fill="#FFC7D2" d="M1328.5,716.1c0,0,33.1-6.9,69.2,6s70.8-14.3,70.8-14.3s-12.3-4.1-25.5-33.3c-3.4-7.5-4.3-16.5-3.9-25.9
					c1-20.6,8.8-42.5,12.5-51.8c1.1-2.8,1.8-4.5,1.9-4.7l-4.3,1.7l-73,29.3c0,0,4.8,10.6,5.4,31.7c0.2,7.8-4.3,15.1-10,21
					C1361.8,686,1328.5,716.1,1328.5,716.1z"/>
				<path fill="#F47382" d="M1439.1,648.7c1-20.6,8.8-42.5,12.5-51.8c-0.8-1-1.6-1.9-2.4-2.9l-73,29.3c0,0,4.8,10.6,5.4,31.7
					c0.2,7.8-4.3,15.1-10,21C1393,668.5,1418.4,657.8,1439.1,648.7z"/>
				<path fill="#FFC7D2" d="M1340.6,582.3C1340.6,582.3,1340.6,582.3,1340.6,582.3c0.3,1.7,4.9,27.6,11,37.8
					c5.9,9.8,1.9,21.7,16.6,22.2c0,0,0.1,0,0.1,0c21.2-0.3,60.6-5.3,64.1-11.3c4.5-7.7,15.7-32.2,15.7-32.2s19.4-6.1,20.3-15.2
					c0.9-9.1,6.3-21.4-2.5-24.9c-1.6-0.7-3.3-0.6-4.9-0.1c-4.2,1.3-8.2,5.6-12.1,8.7c0,0,0,0,0,0c-1.6,1.3-3.2,2.4-4.7,2.9
					c0,0,0,0,0,0c-0.1,0-0.1,0-0.2,0c-0.6,0.2-1.1,0.3-1.6,0.3c0,0,0,0,0,0c-30.4,5.1-58.7-48.9-58.7-48.9c-0.7-1.2-1.3-2.4-1.8-3.7
					c0,0-27.1,12.5-35.9,0.8c-1.8,6.4-3.1,14.3-0.9,19.7c4.2,10.7-2.6,17.6-4.4,34.8C1340.6,575.9,1340.5,578.9,1340.6,582.3z"/>
				<g>
					
						<ellipse transform="matrix(7.532714e-02 -0.9972 0.9972 7.532714e-02 695.0965 1867.6498)" fill="#050370" cx="1354.6" cy="559" rx="7.2" ry="3.8"/>
					<path fill="#050370" d="M1348.6,545c-0.4,0.2,3.4-4.7,5.8-5.1c2.4-0.3,4.8-0.5,5.3,1.1c0.6,1.6,1.1,3.7-0.3,3.6
						C1358.1,544.5,1352.2,543.1,1348.6,545z"/>
					<path fill="#F8F8FF" d="M1359.5,554.6c-0.1,1.3-1.1,2.4-2.1,2.3s-1.9-1.2-1.8-2.6c0.1-1.3,1.1-2.4,2.1-2.3
						S1359.6,553.3,1359.5,554.6z"/>
				</g>
				<g>
					<path fill="#050370" d="M1401.1,561.5c0,3.8-1.9,6.9-4.3,6.9c-2.4,0-4.4-3-4.4-6.8c0-3.8,1.9-6.9,4.3-6.9
						C1399.1,554.7,1401.1,557.7,1401.1,561.5z"/>
					<path fill="#050370" d="M1393.8,543.6c0,0-0.8,2.9-0.3,3.8c0.6,0.9,3.8,0,7.1,2.2c3.3,2.2,6.2,3.9,6.2,3.9s-1.4-4.7-3.4-7.4
						C1401.3,543.2,1394.2,541,1393.8,543.6z"/>
					<path fill="#F8F8FF" d="M1402,557.8c-0.1,1.3-1.2,2.2-2.4,2.1c-1.2-0.1-2.2-1.2-2.1-2.5c0.1-1.3,1.2-2.2,2.4-2.1
						C1401.2,555.4,1402.1,556.5,1402,557.8z"/>
				</g>
				<g>
					<g>
						<g>
							<path fill="#C64662" d="M1379.7,615c-1.6,0.9-3.5,1.6-5.6,2c-5.4,1.3-10-0.3-13.1-3.7c-2.3-2.6-3.7-6.3-3.8-10.5
								c0-1.5,1.2-2.8,2.4-2.5c0.1,0,0.2,0.1,0.4,0.1c2.1,1.2,5.5,2.6,10.4,3.1c6.4,0.7,14.8-1.8,18.4-1.8c1.2,0,1.9,0.3,1.6,1.1
								C1389.6,605.5,1386.6,611.5,1379.7,615z"/>
						</g>
					</g>
					<path fill="#FFF8FA" d="M1388.7,601.9l-1,2.7c-0.2,0.6-6.8,3.1-14.7,2.4c-7.9-0.7-12.1-3.1-13.1-3.5c-0.4-0.2-0.4-1.6-0.3-3
						c0.1,0,0.2,0.1,0.4,0.1c2.1,1.2,5.5,2.6,10.4,3.1C1376.7,604.4,1385.2,602,1388.7,601.9z"/>
					<g>
						<g>
							<path fill="#E8677D" d="M1379.7,615c-1.6,0.9-3.5,1.6-5.6,2c-5.4,1.3-10-0.3-13.1-3.7c2.9-3.2,8-4.4,12.9-2.6
								C1376.3,611.7,1378.3,613.2,1379.7,615z"/>
						</g>
					</g>
				</g>
				<path fill="#FCFCFC" d="M1461.1,558.6c-4.2,1.3-8.2,5.6-12.1,8.7C1452.2,565.3,1456.5,562.3,1461.1,558.6z"/>
				<path fill="#FCFCFC" d="M1444.1,570.4c0,0,0.1,0,0.1,0c0,0,0,0,0,0C1444.2,570.3,1444.2,570.4,1444.1,570.4z"/>
				<g>
					<g>
						<path fill="#E8677D" d="M1371.6,565c2.2,2.7,3.9,5.9,2.3,9.4c-1.7,3.6-10.5,8.3-3.9,12.1c1.9,1.1,0,4-2,2.9
							c-3.1-1.8-4.7-5.5-3.3-9.1c2.1-5.2,9.4-6.5,4.3-13C1367.6,565.6,1370.2,563.2,1371.6,565L1371.6,565z"/>
					</g>
				</g>
				<path fill="#F47382" d="M1454.3,573.7c0,0,11.9-12.4,12.9-6.2c1,6.1-5,22.9-10,21.7s2.2-5.7-1.6-7.4c-3.9-1.7-5.9,1.7-5.6-2.2
					C1450.2,575.5,1454.3,573.7,1454.3,573.7z"/>
			</g>
			<path fill="#FFC7D2" d="M1446.2,1440.1c7.9,36.7,9.8,54.9,14.7,66.1c0.1,0.1,0.1,0.3,0.2,0.4c4.8,10.9,11.5,18.7,16.3,34.3
				c4.8,15.8,4.4,24.1,0,26.8c-4.4,2.8-99.3,23.1-99.3,23.1s-8.8-9-5.5-23.8c3.3-14.8,5.2-9.4,15.9-35.8c4.6-11.2,7.9-20.7,9.9-29
				c2.7-11.3,3-20.2,0.6-27.7c-2.3-7.3-22.2-71.6-39.2-126.4c-13.2-42.7-24.7-79.7-24.7-79.7l85.1-53.1c0,0,5.6,57.9,11.9,115.7
				C1437.1,1377.4,1442.6,1423.7,1446.2,1440.1z"/>
			<path fill="#FFC7D2" d="M1282.9,1449.6c-0.6,37.7-2.9,55.9-0.6,67.9c0,0.1,0.1,0.3,0.1,0.4c2.3,11.8,7.4,20.9,8.5,37.2
				c1.1,16.6-1.1,24.5-6.3,26.3c-5.2,1.7-106.9,0-106.9,0s-6.9-10.8,0-24.5c6.9-13.7,7.5-8,24.7-31.4c7.3-9.9,13-18.5,17-26.1
				c5.4-10.4,7.9-19.1,7.2-27c-0.7-8.8-7.4-95.2-12.1-156c-2.6-34-4.6-60-4.6-60l99.5-32.6c0,0-7.1,51.9-14,106.6
				C1289.2,1379.9,1283.2,1431.7,1282.9,1449.6z"/>
			<g>
				<path fill="#FCFCFC" d="M1221.5,1283.7l84.1-29.9c0,0-6,47.6-11.8,97.8c-23.7-3.7-46.7-8.1-68.4-12.9
					C1223.1,1307.5,1221.5,1283.7,1221.5,1283.7z"/>
			</g>
			<g>
				<path fill="#FCFCFC" d="M1459.1,1253.8c0,0-7.2,53.1-13.7,106.3c-23.1,1.6-46.9,1.5-70.7,0.2c-3.1-41-5.8-76.6-5.8-76.6
					L1459.1,1253.8z"/>
			</g>
			<path fill="#1E377C" d="M1477.3,1567.7c-4.4,2.8-99.3,23.1-99.3,23.1s-8.8-9-5.5-23.8c3.3-14.8,5.2-9.4,15.9-35.8
				c4.6-11.2,7.9-20.7,9.9-29c1-0.5,2.1-0.9,3.1-1.2c6.4-1.5,27.2-11.5,34-5c6.9,6.6,10.1,13.1,17.3,12.9c2.5-0.1,5.4-1.1,8.3-2.3
				c4.8,10.9,11.5,18.7,16.3,34.3C1482,1556.7,1481.7,1564.9,1477.3,1567.7z"/>
			<path fill="#1E377C" d="M1284.7,1581.4c-5.2,1.7-106.9,0-106.9,0s-6.9-10.8,0-24.5c6.9-13.7,7.5-8,24.7-31.4
				c7.3-9.9,13-18.5,17-26.1c1.2-0.3,2.3-0.4,3.4-0.4c6.9,0,30.5-5.1,35.9,2.8c5.5,8,7.2,15.1,14.7,16.6c2.5,0.5,5.8,0.2,9-0.4
				c2.3,11.8,7.4,20.9,8.5,37.2C1292.1,1571.7,1289.8,1579.7,1284.7,1581.4z"/>
			<path fill="#1E377C" d="M1509.6,982.4c2.5,1.7,44.1,43,47.1,105c3,62-41.2,65.8-65.4,79.4c-22.3,12.6-22.8,28.7-22.8,32.2
				s9.7,102.9,6.7,130.5c-3,27.6,3,43.3-6.7,46.3c-9.7,3-32.8-7.5-63.3,5.2c-30.5,12.7-68.4,23.9-98.6,7.5
				c-30.3-16.4-29.5-32.9-55.6-28.4s-42.4,16.4-45.4,2.2c-3-14.2-7.5-134.5-7.5-134.5s-5.2-73.9,0-111.7
				c5.2-37.7,62.8-121.2,88.4-133.3C1312.1,970.9,1468.7,954.5,1509.6,982.4z"/>
			<g>
				<path fill="#FFB400" d="M1499.8,821c2.5,49.1,9.8,161.4,9.8,161.4s-67.4,16.2-120.4,16.2c-27.7,0-56-4.6-76.7-8.9
					c-18.9-3.9-31.4-7.7-31.4-7.7s14.2-80.5,12.8-85.8c-0.7-2.5-3.3-10.6-6.1-19.6c-3.1-10-6.2-21.1-7-26.8c-0.1-1.1-0.2-2.4-0.3-4
					c-0.5-14.4,2.3-46.6,2.3-46.6l-125.2,32.4l-21.7-54c0,0,68.4-26.3,72.9-29c4.6-2.7,20.2-13.9,31.1-22
					c10.8-8.1,37.4-36.6,53.2-47.5c15.8-10.9,83.1-25,83.1-25s-2.9,31.8,1.4,40.4c4.3,8.6,62.1-41.8,62.1-41.8s20.8,7.8,34.3,15.2
					c13.5,7.4,69.4,41.4,69.4,41.4s-43.8,79.2-44.4,89.9C1498.9,801.1,1499.2,809.2,1499.8,821C1499.8,821,1499.8,821,1499.8,821z"
					/>
				<path opacity="0.51" fill="#EF7F18" d="M1509.6,982.4c0,0-67.4,16.2-120.4,16.2c-27.7,0-56-4.6-76.7-8.9
					c-1.1-16.9-2-35.4-2.2-49.9c-0.2-17.5-11.3-42.5-22.5-63.3c-3.1-10-6.2-21.1-7-26.8c-0.1-1.1-0.2-2.4-0.3-4
					c22.1,9.9,65.2,25.1,118.6,23.7c77.9-2,100.3-47.4,100.8-48.3C1502.3,870.1,1509.6,982.4,1509.6,982.4z"/>
				<g>
					<path fill="#EF835E" d="M1295.1,714.9c0.4,5.9,0.8,11.8,1.1,17.7c0.2,2.9,0.5,5.8,0.1,8.7c-0.4,2.7-1.5,5.3-2.6,7.8
						c-2.2,5-4.6,9.9-6.6,15c-2,5.1-3.6,10.3-4.7,15.7c-1.3,6-2.1,12.1-2.2,18.2c0,1.7,2.7,1.7,2.7,0c0.2-11,2.6-21.8,6.4-32
						c1.9-5.2,4.4-10.1,6.6-15.2c1.1-2.5,2.2-5,2.8-7.6c0.6-2.8,0.5-5.6,0.3-8.4c-0.3-6.7-0.8-13.3-1.2-19.9
						C1297.7,713.2,1295,713.1,1295.1,714.9L1295.1,714.9z"/>
					<path fill="#EF835E" d="M1270.9,783.2c1.9,4.7,3.7,9.5,5.6,14.2c0.3,0.7,0.9,1.1,1.7,0.9c0.6-0.2,1.2-1,0.9-1.7
						c-1.9-4.7-3.7-9.5-5.6-14.2c-0.3-0.7-0.9-1.1-1.7-0.9C1271.2,781.7,1270.6,782.5,1270.9,783.2L1270.9,783.2z"/>
					<path fill="#EF835E" d="M1357.1,670.2c0.6,4.1,1.1,8.2,1.7,12.3c0.1,0.7,1,1.1,1.7,0.9c0.8-0.2,1-0.9,0.9-1.7
						c-0.6-4.1-1.1-8.2-1.7-12.3c-0.1-0.7-1-1.1-1.7-0.9C1357.3,668.8,1357,669.5,1357.1,670.2L1357.1,670.2z"/>
					<path fill="#EF835E" d="M1361.1,693.2c1.3,4.4,2.8,8.9,5.6,12.6c3.1,4.1,7.4,6.3,12.5,6.5c10.3,0.4,20-5.2,27.9-11.3
						c4.7-3.6,8.9-7.7,13.2-11.9c1.2-1.2-0.7-3.1-1.9-1.9c-6.9,6.7-13.9,13.5-22.5,18c-7.7,4-19.5,7.6-26.2,0
						c-3.2-3.6-4.7-8.4-6-12.8C1363.2,690.8,1360.6,691.5,1361.1,693.2L1361.1,693.2z"/>
					<path fill="#EF835E" d="M1282.2,839.8c2.6,3,5.9,5.4,9.5,7.1c0.7,0.3,1.5,0.2,1.8-0.5c0.3-0.6,0.2-1.5-0.5-1.8
						c-3.5-1.6-6.4-3.8-8.9-6.7c-0.5-0.5-1.4-0.5-1.9,0C1281.7,838.4,1281.8,839.3,1282.2,839.8L1282.2,839.8z"/>
					<path fill="#EF835E" d="M1316.5,853.2c17.8,9.1,37.9,11.4,57.6,12.1c21,0.7,42.1,0.4,63-2.2c11.7-1.5,23.4-3.8,34.7-7.2
						c1.7-0.5,0.9-3.1-0.7-2.6c-20,6.1-40.8,8.5-61.7,9.3c-10.3,0.4-20.6,0.4-30.9,0.2c-9.8-0.2-19.7-0.7-29.5-2.2
						c-10.8-1.7-21.4-4.6-31.2-9.6C1316.4,850.1,1315,852.4,1316.5,853.2L1316.5,853.2z"/>
					<path fill="#EF835E" d="M1290.6,854.9c6.8,7,14.8,12.9,23.6,17.3c1.5,0.8,2.9-1.6,1.4-2.3c-8.6-4.3-16.4-10-23.1-16.9
						C1291.3,851.7,1289.4,853.7,1290.6,854.9L1290.6,854.9z"/>
					<path fill="#EF835E" d="M1478.3,691.1c3.5,2.7,7,5.5,10.6,8.2c0.6,0.4,1.3,0.6,1.9,0c0.5-0.5,0.6-1.5,0-1.9
						c-3.5-2.7-7-5.5-10.6-8.2c-0.6-0.4-1.3-0.6-1.9,0C1477.8,689.6,1477.7,690.6,1478.3,691.1L1478.3,691.1z"/>
					<path fill="#EF835E" d="M1306.2,750.2c4.1,2.3,8.3,4.6,12.4,6.9c1.5,0.8,2.9-1.5,1.4-2.3c-4.1-2.3-8.3-4.6-12.4-6.9
						C1306.1,747,1304.7,749.3,1306.2,750.2L1306.2,750.2z"/>
				</g>
			</g>
			<g>
				<path fill="#496BCE" d="M1275.4,1017.5c12.1,24.2,24.5,48.2,37.3,72.1c3.6,6.8,7.3,13.5,11,20.3c0.9,1.7,3.4,0.2,2.5-1.5
					c-13-23.7-25.6-47.7-37.9-71.8c-3.5-6.8-6.9-13.7-10.4-20.6C1277.1,1014.3,1274.5,1015.8,1275.4,1017.5L1275.4,1017.5z"/>
				<path fill="#496BCE" d="M1338.4,1126.9c17.6,19,37.9,35.6,60.2,48.9c6.3,3.8,12.8,7.4,19.4,10.6c1.7,0.8,3.2-1.7,1.5-2.5
					c-23.1-11.5-44.6-26.2-63.6-43.7c-5.3-4.9-10.5-10.1-15.4-15.4C1339.1,1123.4,1337.1,1125.5,1338.4,1126.9L1338.4,1126.9z"/>
				<path fill="#496BCE" d="M1317.1,1052.6c12.6,16.2,25.3,32.4,37.9,48.6c1.2,1.5,3.2-0.6,2.1-2.1c-12.6-16.2-25.3-32.4-37.9-48.6
					C1318,1049.1,1315.9,1051.2,1317.1,1052.6L1317.1,1052.6z"/>
				<path fill="#496BCE" d="M1318.1,1008.1c15,9.7,31.1,17.5,48,23.3c1.8,0.6,2.5-2.2,0.8-2.8c-16.7-5.7-32.6-13.4-47.3-23
					C1317.9,1004.5,1316.5,1007,1318.1,1008.1L1318.1,1008.1z"/>
				<path fill="#496BCE" d="M1391.4,1039.1c25.8,4.4,51.9,6.9,78,7.2c7.4,0.1,14.8,0,22.2-0.2c1.9-0.1,1.9-3,0-2.9
					c-25.9,0.8-51.9-0.4-77.7-3.6c-7.3-0.9-14.6-2-21.8-3.3C1390.3,1036,1389.5,1038.8,1391.4,1039.1L1391.4,1039.1z"/>
				<path fill="#496BCE" d="M1275.4,1094.2c1,19.5,1.7,38.9,2.4,58.4c0.6,19.4,1.1,38.8,1.4,58.2c0.2,11,0.3,21.9,0.3,32.9
					c0,1.9,2.9,1.9,2.9,0c-0.1-19.5-0.4-39-0.8-58.4c-0.4-19.4-1-38.8-1.8-58.2c-0.4-10.9-0.9-21.9-1.4-32.8
					C1278.2,1092.4,1275.3,1092.3,1275.4,1094.2L1275.4,1094.2z"/>
				<path fill="#496BCE" d="M1278.5,1275c1,22.7,2,45.3,3,68c0.3,6.5,0.6,13,0.8,19.4c0.1,1.9,3,1.9,2.9,0c-1-22.7-2-45.3-3-68
					c-0.3-6.5-0.6-13-0.8-19.4C1281.3,1273.2,1278.4,1273.2,1278.5,1275L1278.5,1275z"/>
				<path fill="#496BCE" d="M1305.3,1265.3c-1.9,17.1-3.9,34.2-5.8,51.2c-0.6,4.8-1.1,9.7-1.7,14.5c-0.2,1.9,2.7,1.9,2.9,0
					c1.9-17.1,3.9-34.2,5.8-51.2c0.6-4.8,1.1-9.7,1.7-14.5C1308.5,1263.4,1305.5,1263.5,1305.3,1265.3L1305.3,1265.3z"/>
				<path fill="#496BCE" d="M1439.9,1191.1c9.4,3.6,19.1,6.2,29,7.7c1.8,0.3,2.6-2.5,0.8-2.8c-9.9-1.5-19.6-4.1-29-7.7
					C1438.9,1187.6,1438.1,1190.5,1439.9,1191.1L1439.9,1191.1z"/>
			</g>
			<path fill="#EF7F18" d="M1293.7,860.9c0,0,52.2,50,70.8,51.8c18.6,1.8,68.9-8.2,67.4-8.2C1430.4,904.6,1333.2,886.9,1293.7,860.9
				z"/>
		</g>
		<g>
			<g>
				<g>
					<path fill="#FFC7D2" d="M799,698.4c25,14.9,20.3,3.2,52.9-4.3c32.6-7.6,56.3-51.6,56.3-51.6s-24.4-19.2-24.9-25.6
						c-0.3-3.4-2.1-11.6-0.6-26.2c1.3-13,2.6-24.5,2.6-24.5l-55.2-8.1l-11.7-1.7c0,0,2.3,9.1,3.5,18.9c0.6,5,0.9,10.2,0.5,14.5
						c-0.9,8.5-1.9,12.1-4,18.3c-1,3.1-10.2,4.1-10.2,4.1s-38.7,22.4-45.5,41.6C755.9,672.8,774,683.5,799,698.4z"/>
					<path fill="#F47382" d="M822.3,589.7c-0.9,8.5-4.2,19.3-6.3,25.5c2,13.9,9,23.9,25,13.8c11.5-7.3,27.4-23,41.6-38.4
						c1.3-13,2.6-24.5,2.6-24.5l-55.2-8.1c-3.2,5.6-6,11.5-8.2,17.2C822.4,580.2,822.7,585.4,822.3,589.7z"/>
				</g>
				<g>
					<g>
						<g>
							<path fill="#13135D" d="M790.6,471.9l89.3,118c0,0,24.6-2.8,43.2-23.9c14-15.9,34.8-65.6,12.4-108.7c0,0,0,0,0,0
								c-1.5-1.5-96.7-100.4-142.8,9.8C792,468.8,791.3,470.4,790.6,471.9z"/>
						</g>
					</g>
					<g>
						<g>
							<g>
								<path fill="#13135D" d="M843.5,416.5c0,0-34.1,2-46.7,24c-12.6,22-11,45.2-11,45.2L843.5,416.5z"/>
							</g>
						</g>
						<path fill="#FFC7D2" d="M917.3,554c-1.4,9.6-22.8,14.9-22.8,14.9s-13.4,25.3-18.7,33.2c-4.1,6.1-47.1,9.1-70.2,8.3
							c0,0-0.1,0-0.1,0c-15.9-1.4-10.9-13.8-16.8-24.5c-6.1-11.2-9.8-38.9-10-40.6c0-0.1,0-0.1,0-0.1c0-3.6,0.2-6.8,0.6-9.3
							c2.9-18,10.6-25,6.5-36.6c-4.1-11.6,6.9-32.3,6.9-32.3l21.4,2.7c0,0,7.1,11.9,32.6,15.8c25.6,3.9,48-3.1,51.3-0.9
							c3.4,2.3-8.6,29-9.7,38c-1.1,9.1-7.4,14.4,0.4,16c7.8,1.6,17.9-15.5,27.2-11.3C925.2,531.8,918.7,544.4,917.3,554z"/>
						<g>
							<g>
								<path fill="#13135D" d="M805.4,520c-0.5,4.2-3.2,7.3-5.9,6.9c-2.7-0.3-4.5-4-4-8.2c0.5-4.2,3.2-7.3,5.9-6.9
									S805.9,515.8,805.4,520z"/>
							</g>
						</g>
						<g>
							<g>
								<path fill="#13135D" d="M852.9,528.2c-0.5,4.2-3.2,7.3-5.9,6.9c-2.7-0.3-4.5-4-4-8.2c0.5-4.2,3.2-7.3,5.9-6.9
									C851.7,520.4,853.5,524,852.9,528.2z"/>
							</g>
						</g>
						<g>
							<g>
								<path fill="#E8677D" d="M815.3,531.2c3.9,9.3-6.8,9.7-9.3,16.1c-1.6,4.2,2,4.9,3.3,8c1,2.5,4.4,0.6,3.4-1.9
									c-0.6-1.5-3.3-3.5-2.6-5.3c0.3-0.9,3-2.5,3.6-3c1.3-1.1,2.7-2.1,3.9-3.3c3.5-3.5,3-8.3,1.2-12.6
									C817.7,526.9,814.3,528.8,815.3,531.2L815.3,531.2z"/>
							</g>
						</g>
						<g>
							<g>
								<path fill="#13135D" d="M793.1,504.2c-0.5,0.2,4.6-4.7,7.8-4.9c3.1-0.2,6.2-0.1,6.9,1.6c0.5,1.2,1.6,4-0.5,3.8
									C805.5,504.5,797.9,502.4,793.1,504.2z"/>
							</g>
						</g>
						<g>
							<g>
								<path fill="#13135D" d="M845.6,507.7c0,0-1.1,3.2-0.5,4.2s4.3,0.2,7.9,2.8c3.6,2.7,6.8,4.7,6.8,4.7s-1.3-5.3-3.5-8.5
									C854.1,507.7,846.2,504.8,845.6,507.7z"/>
							</g>
						</g>
						<path fill="#FCFCFC" d="M807.4,516.5c-0.2,1.4-1.5,2.4-2.9,2.2s-2.4-1.5-2.2-2.9c0.2-1.4,1.5-2.4,2.9-2.2
							C806.6,513.8,807.6,515.1,807.4,516.5z"/>
						<path fill="#FCFCFC" d="M854.9,524.6c-0.2,1.4-1.5,2.4-2.9,2.2c-1.4-0.2-2.4-1.5-2.2-2.9c0.2-1.4,1.5-2.4,2.9-2.2
							C854.1,521.9,855.1,523.2,854.9,524.6z"/>
						<g>
							<polygon fill="#FCFCFC" points="853,510.5 853,510.5 853,510.5 							"/>
							<polygon fill="#FCFCFC" points="800.2,505 800.2,505 800.2,505 							"/>
						</g>
						<g>
							<g>
								<path fill="#13135D" d="M814.1,469.8c0,0,14.4-9.5,45.6-4.1c31.2,5.5,38.3,19,38.3,19s-13.2,16.8-48.7,8.1
									C813.9,484.2,814.1,469.8,814.1,469.8z"/>
							</g>
						</g>
						<path fill="#F47382" d="M896.7,545.2c0,0,15.4-16.2,17.5-10.4c2.1,5.8-5.8,21.9-9.1,22.9c-3.2,0.9-12.2,1.6-8.1-3.2
							c4.1-4.8,2.4-6.5-0.9-4.3C892.9,552.3,893.2,548.7,896.7,545.2z"/>
						<g>
							<g>
								<path fill="#C64662" d="M819.9,581.1c-1.6,0.9-3.5,1.6-5.5,2.1c-5.4,1.4-10.1-0.1-13.2-3.3c-2.4-2.5-3.9-6-4.1-10.1
									c-0.1-1.5,1.2-2.7,2.3-2.4c0.1,0,0.2,0.1,0.4,0.1c2.1,1.1,5.6,2.4,10.5,2.8c6.4,0.5,14.8-2.1,18.3-2.2c1.2,0,1.9,0.2,1.7,1
									C829.5,571.5,826.7,577.5,819.9,581.1z"/>
							</g>
						</g>
						<path fill="#FCFCFC" d="M828.5,568.1l-0.9,2.7c-0.2,0.6-6.7,3.2-14.6,2.7c-7.9-0.5-12.2-2.7-13.2-3.2c-0.5-0.2-0.5-1.5-0.4-3
							c0.1,0,0.2,0.1,0.4,0.1c2.1,1.1,5.6,2.4,10.5,2.8C816.6,570.8,825,568.2,828.5,568.1z"/>
						<g>
							<g>
								<path fill="#E8677D" d="M819.9,581.1c-1.6,0.9-3.5,1.6-5.5,2.1c-5.4,1.4-10.1-0.1-13.2-3.3c2.8-3.2,7.9-4.5,12.8-2.8
									C816.4,577.9,818.4,579.4,819.9,581.1z"/>
							</g>
						</g>
					</g>
				</g>
			</g>
			<path fill="#FFC7D2" d="M847.5,1455.5c0,0-5.1,52.6,0,61.5c5.1,8.9,9.2,12,19.7,17.4c10.5,5.4,23.7,15.3,26.3,22.5
				c2.6,7.1,1.3,18.6-3.1,22.5c-4.3,3.8-17,2.9-20.4,3c-3.3,0.1-110.1,0-110.1,0s-8.7-6.8-5.9-19.1c2.8-12.3,7.1-19.1,14-31.4
				c6.9-12.3-2-53.1-2-53.1L847.5,1455.5z"/>
			<path fill="#FFC7D2" d="M586.8,1468.9c0,0-3.7,32-1.7,48.3c2,16.3,4.1,35.1,2.7,47c-1.4,11.9,2,13.3-14.3,15.7
				c-16.3,2.4-35.1-7.1-46-6.5c-10.9,0.7-37.1,11.2-73.5,8.5c-36.4-2.7-43.2-7.5-43.9-14c-0.7-6.5,6.5-12.3,11.6-10.9
				c5.1,1.4,28.6-6.8,36.1-13.3c7.5-6.5,24.5-19.1,36.1-28.9c11.6-9.9,16.7-16.3,17.7-31c1-14.6,1-28.3,1-28.3L586.8,1468.9z"/>
			<path fill="#3753B7" d="M1184.6,806.5l-13.8,67.6c0,0-122.9-1.9-135.9-6.7c-13-4.8-66.2-51.6-66.2-51.6s-28.4,90.7-31.3,112
				c-2.9,21.3-6.7,61.9-7.5,74.2c-0.8,12.2,15.8,24.7,17.1,46.4c1.3,21.7,2.1,34.8,2.1,34.8s-41.4-23-111.8-34.5
				s-62.8-17.6-119.5-17.6c-56.7,0-74.3-10-75.1-13c-0.8-3.1,22.2-41.7,22.2-59.2c0-2.5,0.6-7.8,1.5-15
				c4.8-35.4,19.5-117.6,24.9-151.3c1-6.5,1.7-11.2,1.9-13.4c1.5-16.2,10-124.2,10-124.2s54.2-32.1,95.7-40.6
				c0,0,0.3,29.1,32.7,30.4c32.3,1.4,51.4-30.4,51.4-30.4s78.6,33.7,91.9,39.4c13.3,5.8,48.4,62.9,56.1,75.2
				c7.7,12.2,22.7,48.3,29.2,53.1S1184.6,806.5,1184.6,806.5z"/>
			<g>
				<path fill="#1E377C" d="M959.3,701.3c-4.3,14.4-8,29.2-8.8,44.3c-0.4,7.5,0,15.1,1.4,22.6c1.4,7.4,3.7,14.6,6.1,21.7
					c2.9,8.4,5.9,16.8,9,25.1c0.7,1.8,3.6,1,2.9-0.8c-2.7-7.2-5.4-14.5-7.9-21.8c-2.5-7.1-4.9-14.3-6.6-21.6
					c-3.3-14.5-2.4-29.5,0.4-44c1.6-8.3,3.8-16.5,6.2-24.6C962.8,700.3,959.9,699.5,959.3,701.3L959.3,701.3z"/>
				<path fill="#1E377C" d="M968.5,814.5c-5.4-1.9-10.6-4.1-15.8-6.4c-0.7-0.3-1.6-0.2-2.1,0.5c-0.4,0.6-0.2,1.7,0.5,2.1
					c5.4,2.4,10.9,4.7,16.5,6.7c0.8,0.3,1.6-0.3,1.8-1C969.8,815.5,969.3,814.8,968.5,814.5L968.5,814.5z"/>
				<path fill="#1E377C" d="M971.6,678.6c1.2-2,2.5-4,3.7-6.1c0.4-0.7,0.2-1.7-0.5-2.1c-0.7-0.4-1.6-0.2-2.1,0.5
					c-1.2,2-2.5,4-3.7,6.1c-0.4,0.7-0.2,1.7,0.5,2.1C970.2,679.5,971.1,679.3,971.6,678.6L971.6,678.6z"/>
				<path fill="#1E377C" d="M1056.2,780c-14.4,6.2-28.4,13.5-41.7,21.8c-1.6,1-0.1,3.6,1.5,2.6c13.3-8.3,27.3-15.6,41.7-21.8
					C1059.5,781.8,1058,779.2,1056.2,780L1056.2,780z"/>
				<path fill="#1E377C" d="M788.5,639c-0.3,2.4,0.2,4.8,1.2,6.9c0.3,0.7,1.4,1,2.1,0.5c0.7-0.5,0.9-1.3,0.5-2.1
					c-0.1-0.1-0.2-0.3-0.2-0.4c0.1,0.3,0,0.1,0,0c-0.1-0.2-0.2-0.5-0.3-0.7c-0.2-0.5-0.3-1-0.4-1.5c0-0.1,0-0.1,0-0.2
					c0,0.1,0,0.1,0,0.2c0-0.1,0-0.3,0-0.4c0-0.3,0-0.5,0-0.8c0-0.5,0-1,0.1-1.5c0-0.4-0.2-0.8-0.4-1.1c-0.3-0.3-0.7-0.5-1.1-0.4
					c-0.4,0-0.8,0.1-1.1,0.4C788.7,638.3,788.6,638.6,788.5,639L788.5,639z"/>
				<path fill="#1E377C" d="M793.9,653.4c7.3,9,19,12.3,30,13.5c13,1.4,26.8,0.8,38.9-4.4c6.3-2.7,12-6.6,16.5-11.8
					c1.3-1.5-0.9-3.6-2.1-2.1c-7.9,9.1-19.5,13.8-31.3,15.2c-6.5,0.8-13.2,0.8-19.8,0.2c-5.3-0.4-10.6-1.3-15.6-3.1
					c-5.6-1.9-10.7-5.1-14.5-9.7C794.8,649.8,792.7,651.9,793.9,653.4L793.9,653.4z"/>
				<path fill="#1E377C" d="M675.6,953.1c2.2,2.6,4.4,5.1,6.6,7.7c0.5,0.6,1.6,0.6,2.1,0c0.6-0.6,0.6-1.5,0-2.1
					c-2.2-2.6-4.4-5.1-6.6-7.7c-0.5-0.6-1.6-0.6-2.1,0C675,951.6,675,952.5,675.6,953.1L675.6,953.1z"/>
				<path fill="#1E377C" d="M686.5,966.3c17.7,9.2,38,12,57.5,14.8c21,3.1,42.1,5.3,63.2,7.2c12,1.1,23.9,2.1,35.9,3
					c1.9,0.2,1.9-2.8,0-3c-20.9-1.7-41.8-3.4-62.7-5.7c-20.5-2.2-41.2-4.7-61.4-8.8c-10.7-2.2-21.3-5.1-31-10.2
					C686.3,962.8,684.8,965.4,686.5,966.3L686.5,966.3z"/>
				<path fill="#1E377C" d="M697.9,979.9c13,8.6,27.2,15.3,42.2,19.8c4.2,1.3,8.5,2.3,12.8,3.3c1.9,0.4,2.7-2.5,0.8-2.9
					c-15.1-3.2-29.7-8.5-43.2-16c-3.8-2.1-7.5-4.4-11.1-6.8C697.8,976.2,696.3,978.8,697.9,979.9L697.9,979.9z"/>
				<path fill="#1E377C" d="M795.9,883.6c22.7-2.3,45.6-2.4,68.3-0.2c6.5,0.6,13,1.5,19.5,2.5c1.9,0.3,2.7-2.6,0.8-2.9
					c-22.8-3.6-46-4.9-69-3.8c-6.5,0.3-13,0.8-19.5,1.4C794,880.8,794,883.8,795.9,883.6L795.9,883.6z"/>
				<path fill="#1E377C" d="M807,887.8c6.8,2,13.4,4.8,19.6,8.3c1.7,1,3.2-1.6,1.5-2.6c-6.4-3.6-13.2-6.5-20.3-8.6
					C805.9,884.4,805.1,887.3,807,887.8L807,887.8z"/>
			</g>
			<path fill="#1E377C" d="M586.8,1036.8c0,0,56.6-49.4,70.7-51.8c14.1-2.4,62.1,2,76.9,17.9c14.8,16,20.4,18.5,20.4,18.5
				s53.7-25.5,81.2-22c27.6,3.6,58.7,16.3,72,28.1c13.3,11.7,41.3,25,39,55.7c-2.3,30.6-38.5,86.6-39.3,92.7
				c-0.8,6.1-19.9,132.5-27.6,166.2c-7.7,33.7-23.7,100.3-23.7,115.7c0,15.3,8.4,44.4,0,48.3c-8.4,3.8-104.2,19-106.5-1.2
				c-2.3-20.2,4.6-237,5.4-265.3c0.8-28.3,0-88.9,0-88.9h-60.8c0,0-43.4,95.7-46.4,103.4c-3.1,7.7-42.9,165.4-47.5,191.5
				c-4.6,26,0.8,42.1-10,49.8c-10.7,7.7-91.1,12.3-94.2-4.6c-3.1-16.9,27.6-219.8,27.6-219.8s33.7-183.1,39.1-194.6
				C568.4,1064.9,576.5,1045.6,586.8,1036.8z"/>
			<g>
				<path fill="#496BCE" d="M712,1079.3c-1.6,16.4-5.7,32.5-11.9,47.7c-1.8,4.4-3.8,8.7-5.9,12.9c-0.9,1.7,1.7,3.2,2.6,1.5
					c7.7-15.1,13.2-31.3,16.2-48c0.9-4.7,1.5-9.4,2-14.2C715.2,1077.4,712.2,1077.4,712,1079.3L712,1079.3z"/>
				<path fill="#496BCE" d="M708.6,1115.6c12.5-0.1,24.9-1.3,37.2-3.6c1.9-0.4,1.1-3.2-0.8-2.9c-12,2.2-24.2,3.4-36.4,3.4
					C706.7,1112.6,706.7,1115.6,708.6,1115.6L708.6,1115.6z"/>
				<path fill="#496BCE" d="M756.5,1117.1c-1,7-2.1,14.1-3.1,21.1c-0.1,0.8,0.2,1.6,1,1.8c0.7,0.2,1.7-0.2,1.8-1
					c1-7,2.1-14.1,3.1-21.1c0.1-0.8-0.2-1.6-1-1.8C757.7,1115.8,756.7,1116.3,756.5,1117.1L756.5,1117.1z"/>
				<path fill="#496BCE" d="M752.4,1023.5c-3.6,6.1-7.2,12.2-10.8,18.4c-1,1.7,1.6,3.2,2.6,1.5c3.6-6.1,7.2-12.2,10.8-18.4
					C756,1023.3,753.4,1021.8,752.4,1023.5L752.4,1023.5z"/>
				<path fill="#496BCE" d="M582.7,1066.7c8.7,11,22.2,17.7,36.2,18.2c1.9,0.1,1.9-2.9,0-3c-13.3-0.5-25.9-7-34.1-17.4
					C583.6,1063,581.5,1065.2,582.7,1066.7L582.7,1066.7z"/>
				<path fill="#496BCE" d="M597.9,1091.6c2.6,0.5,5.1,1,7.7,1.5c0.8,0.2,1.7-0.2,1.8-1c0.2-0.7-0.2-1.7-1-1.8
					c-2.6-0.5-5.1-1-7.7-1.5c-0.8-0.2-1.7,0.2-1.8,1C596.6,1090.5,597,1091.4,597.9,1091.6L597.9,1091.6z"/>
				<path fill="#496BCE" d="M836.1,1116.2c13.7,2.9,27.8,4.2,41.8,3.7c1.9-0.1,1.9-3.1,0-3c-13.8,0.4-27.5-0.8-41-3.6
					C835,1112.9,834.2,1115.8,836.1,1116.2L836.1,1116.2z"/>
				<path fill="#496BCE" d="M826.1,1133c2.6,0.8,5.1,1.5,7.7,2.3c0.8,0.2,1.7-0.3,1.8-1c0.2-0.8-0.2-1.6-1-1.8
					c-2.6-0.8-5.1-1.5-7.7-2.3c-0.8-0.2-1.7,0.3-1.8,1C824.9,1131.9,825.3,1132.7,826.1,1133L826.1,1133z"/>
				<path fill="#496BCE" d="M506.6,1432.2c14.7,4.3,29.8,7.5,45,9.5c0.8,0.1,1.5-0.8,1.5-1.5c0-0.9-0.7-1.4-1.5-1.5
					c-14.9-2-29.7-5.1-44.2-9.4C505.5,1428.8,504.7,1431.7,506.6,1432.2L506.6,1432.2z"/>
				<path fill="#496BCE" d="M565,1441.5c5.6,1.3,11.4,1.9,17.2,1.8c1.9,0,1.9-3,0-3c-5.5,0.1-11-0.5-16.4-1.7
					C563.9,1438.1,563.1,1441,565,1441.5L565,1441.5z"/>
				<path fill="#496BCE" d="M756.7,1449.4c24.3,2.1,48.7,0.4,72.9-2.1c6.9-0.7,13.8-1.5,20.6-2.3c1.9-0.2,1.9-3.2,0-3
					c-24.2,2.8-48.5,5.6-72.9,5.4c-6.9-0.1-13.8-0.4-20.7-1C754.8,1446.2,754.8,1449.2,756.7,1449.4L756.7,1449.4z"/>
			</g>
			<path fill="#1E377C" d="M849.7,804.3c0,0-100.2,100.7-126.8,119.1c-15.5,10.7-39.3,17.1-56.5,20.6
				c4.8-35.4,19.5-117.6,24.9-151.3L849.7,804.3z"/>
			<g>
				<path fill="#FFC7D2" d="M755.3,810.6c0,0,26.3-31.4,31.9-34.6c5.6-3.2,12.8-5.5,19.1-10.2c6.4-4.7,8.6-8.3,9.2-4.5
					c0.6,3.8,1.8,5.5-0.9,10.9c-2.7,5.4-9.6,11.6-9.6,11.6s15.3-8.4,16.6-9.7c1.3-1.3,23.9-15.1,28.6-17.5c4.7-2.4,8.9-0.6,9.4,1.9
					c0.5,2.6,0,3.2,0,3.2s5.1-1.9,6.6,1.5c1.5,3.4-3.4,10.3-3.4,10.3s2,2.8,1.3,6.2c-0.8,3.4-6.3,12.4-6.3,12.4s1.4,1.1,0.1,6.1
					c-1.3,5-20,25.7-27.2,29.7c-7.1,4.1-29.1,8.2-40.3,12.8c-11.2,4.6-35.2,13.5-35.2,13.5V810.6z"/>
				<g>
					<path fill="#F47382" d="M859.2,760.4c-11.4,13.1-25.6,23.6-41.4,30.8c-1.8,0.8-0.2,3.4,1.5,2.6c16.1-7.2,30.5-18,42-31.3
						C862.6,761.1,860.5,759,859.2,760.4L859.2,760.4z"/>
					<path fill="#F47382" d="M861.5,773.2c-7.6,13.3-20.5,22.3-32.8,30.9c-1.6,1.1-0.1,3.7,1.5,2.6c12.8-8.9,26-18.3,33.9-32
						C865,773,862.4,771.5,861.5,773.2L861.5,773.2z"/>
					<path fill="#F47382" d="M857.4,791.8c-5.4,8.3-13,15.1-21.8,19.5c-1.7,0.9-0.2,3.4,1.5,2.6c9.3-4.6,17.3-11.8,22.9-20.6
						C861,791.6,858.4,790.1,857.4,791.8L857.4,791.8z"/>
				</g>
			</g>
			<path fill="#3753B7" d="M703.2,655.1c0,0,15.3,22.5,15.8,44.6c0.5,22-26,117.8-26,117.8s58.2-25.3,63.8-20.7
				c5.6,4.6,20.4,51.6,19.9,59.8c-0.5,8.2-78.1,43.4-102.6,52.6c-24.5,9.2-41.9-1.5-55.7-23c-13.8-21.4-13.3-45.4-7.1-58.2
				C617.4,815.2,660.8,673.7,703.2,655.1z"/>
			<g>
				<path fill="#1E377C" d="M636.3,850.5c2.9-4,5.8-7.9,9.2-11.4c3-3.1,6.4-5.8,10.1-8c7.3-4.5,15.5-7.4,23.7-9.7
					c4.7-1.3,9.4-2.4,14.1-3.5c1.9-0.4,1.1-3.3-0.8-2.9c-17,3.9-35.2,8.3-48.1,20.9c-4.1,4-7.5,8.6-10.8,13.2
					C632.5,850.5,635.1,852,636.3,850.5L636.3,850.5z"/>
				<path fill="#1E377C" d="M716.9,674.6c-7.1,18-13.3,36.4-18.6,55c-5.3,18.6-9.7,37.5-13.2,56.5c-1.9,10.7-3.6,21.4-4.9,32.1
					c-0.2,1.9,2.8,1.9,3,0c2.4-19.1,5.8-38,10-56.8c4.3-18.7,9.4-37.2,15.5-55.4c3.4-10.3,7.1-20.5,11.1-30.6
					C720.5,673.6,717.6,672.8,716.9,674.6L716.9,674.6z"/>
			</g>
		</g>
		<g>
			<g>
				<g>
					<g>
						<path fill="#13135D" d="M1190.8,700.3c0,0,15.9-16.3,32.1-4.3c16.1,11.9,8.3,38.7,2.4,56.6c-5.9,17.8-2.3,27.1,2.3,26.3
							c4.6-0.8,6.4-1,6,0.4c-0.4,1.4-14.4,21.4-40.4,12.9c-26-8.5-26.4-31-24.2-59.9C1171.3,703.4,1190.8,700.3,1190.8,700.3z"/>
					</g>
				</g>
				<g>
					<g>
						<path fill="#13135D" d="M1199.6,680c6,21.5-4.8,32.2-7.8,43c-0.3,1-0.5,1.9-0.6,2.9c0,0,0,0,0,0c-2.2,8.8-12.1,35-50.1,37.8
							c-45.9,3.4-64.7-0.6-64.7-0.6s0,0,0,0c-1.5,0.5-2.8-1.1-2.1-2.5c6.1-11.7,10.9-18.5,10.9-18.5l-28.9-22.8
							c0,0-28.8-32-13.1-61.7c15.7-29.7,32.5-21.5,32.5-21.5s20.8-30,55.5-19.2C1165.9,627.6,1190.5,647.5,1199.6,680z"/>
					</g>
				</g>
				<path fill="#FFC7D2" d="M1055.5,674.3c0,0-12.2,50.5-0.8,71c11.4,20.4,30,21.7,30,21.7l-1.2,17.3c0,0-21.7,34.4,12.9,38.4
					c34.6,4,55.7-22.4,55.7-22.4l-6.7-20.6c0,0-1.6-23.6,1.9-28.3c3.5-4.8,6.8-5.9,10.7-6.6c3.9-0.7,9.7-9,8.2-16.3
					c-1.5-7.3-7.1-13.5-12.7-13.2c-5.6,0.4-10.2,6.3-10.2,6.3s-16.3-10.7-31.5-26.8c-15.2-16.1-22.3-32.6-22.3-32.6
					S1061.5,671.7,1055.5,674.3z"/>
				<path fill="#F47382" d="M1084.7,766.9c0,0,8.7,3,24.7-1.5c16-4.5,25.1-12.2,25.1-12.2s-21.1,20.8-33.1,27.2
					c-12,6.4-14,8.1-15.7,2C1084,776.4,1084.7,766.9,1084.7,766.9z"/>
				<g>
					<g>
						<g>
							<path fill="#13135D" d="M1068.8,701.4c-0.2,2.9-2,5.1-4,4.9c-2-0.2-3.6-2.6-3.4-5.5c0.2-2.9,2-5.1,4-4.9
								C1067.5,696,1069,698.5,1068.8,701.4z"/>
						</g>
					</g>
					<g>
						<g>
							<path fill="#13135D" d="M1103.3,706.1c-0.2,2.9-2,5.1-4,4.9c-2-0.2-3.6-2.6-3.4-5.5c0.2-2.9,2-5.1,4-4.9
								C1102,700.7,1103.5,703.2,1103.3,706.1z"/>
						</g>
					</g>
					<path fill="#F47382" d="M1074.3,707.9c3.4,6.3-4.6,6.9-6.1,11.4c-1,2.9,1.8,3.3,2.9,5.5c0.9,1.7,3.3,0.3,2.4-1.4
						c-0.5-1-2.6-2.3-2.2-3.6c0.2-0.6,2.1-1.8,2.5-2.2c0.9-0.8,1.9-1.5,2.7-2.4c2.4-2.5,1.8-5.8,0.2-8.7
						C1075.9,704.8,1073.5,706.2,1074.3,707.9L1074.3,707.9z"/>
					<g>
						<g>
							<path fill="#13135D" d="M1058.9,690.7c-0.4,0.1,3.2-3.4,5.5-3.6c2.3-0.2,4.6-0.3,5.2,0.9c0.6,1.2,1.2,2.7-0.2,2.6
								C1068.1,690.5,1062.3,689.3,1058.9,690.7z"/>
						</g>
					</g>
					<g>
						<g>
							<path fill="#13135D" d="M1096.7,692c0,0-0.7,2.2-0.2,2.9s3.2,0,6.1,1.7c2.8,1.7,5.3,3.1,5.3,3.1s-1.3-3.6-3.1-5.8
								C1103.1,691.8,1097.1,690,1096.7,692z"/>
						</g>
					</g>
					<path fill="#FCFCFC" d="M1069.8,698c-0.1,1-1,1.7-2,1.6c-1.1-0.1-1.9-0.9-1.8-1.9c0.1-1,1-1.7,2-1.6
						C1069.1,696.1,1069.9,697,1069.8,698z"/>
					<path fill="#FCFCFC" d="M1104,702.9c-0.1,1-1,1.7-2,1.6c-1.1-0.1-1.9-0.9-1.8-1.9c0.1-1,1-1.7,2-1.6
						C1103.3,701.1,1104.1,702,1104,702.9z"/>
					<path fill="#C64456" d="M1092.3,736.9c-0.3,1.6-0.9,3.2-1.8,4.5c-2.5,4-7,6.6-12.1,6.5c-2.6,0-5-0.8-7.1-2.1
						c-3.3-2.1-5.5-5.5-6-9.4c-0.1-0.5,0.1-1.1,0.5-1.4c0.4-0.4,0.9-0.6,1.5-0.6l23.2,0.4c0.9,0,1.5,0.6,1.8,1.3
						C1092.3,736.3,1092.3,736.6,1092.3,736.9z"/>
					<path fill="#FCFCFC" d="M1092.2,736.1c-3.4,1.3-7.8,2-12.6,1.9c-5.5-0.1-10.5-1.2-13.9-2.9c0.4-0.4,0.9-0.6,1.5-0.6l23.2,0.4
						C1091.3,734.8,1092,735.4,1092.2,736.1z"/>
					<path fill="#F47382" d="M1090.4,741.5c-2.5,4-7,6.6-12.1,6.5c-2.6,0-5-0.8-7.1-2.1c3.4-3.2,8.5-5.2,14-5.1
						C1087.1,740.8,1088.8,741,1090.4,741.5z"/>
				</g>
			</g>
			<g>
				<path fill="#FFC7D2" d="M892.1,807.9c0.9,3.5,10,18.6,10.9,27.4c0.1,1.3,0.1,4.3,0,8.4l33.8-8.9c-0.9-4.9-1.5-8.4-1.6-9.4
					c-0.4-5.2,14.4-22.7,15.7-28.8c1.3-6.1,2.3-9.9-0.9-12.3c-3.2-2.4-11-5.9-11-5.9s-4.4-11.7-8-12.9c-3.6-1.2-6.1,2.8-6.1,2.8
					s-6.9-4.1-10-3.1c-3.2,1-4.8,4.6-4.8,4.6s-7.4-1.1-9.9,0.6c-2.5,1.7-3.2,6.8-3.2,6.8s-5.2,1.5-6.5,4
					C889.3,783.9,891.2,804.3,892.1,807.9z"/>
				<g>
					<g>
						<g>
							<path fill="#E8677D" d="M938.1,780.7c-4.6,0.3-9.2,0.2-13.8-0.4c-0.7-0.1-1.6-0.2-1.5,0.8c0.1,0.9,1.1,1.8,1.7,2.4
								c1.6,1.5,3.5,2.6,5.5,3.4c2.3,0.9,4.7,1.6,7,2.4c0.9,0.3,1.8,0.5,2.1,1.5c0.3,1-0.4,1.8-1.2,2.3c-3.8,2.4-7.4,4.8-9.9,8.5
								c-2.8,4.1-4.3,8.8-5.8,13.5c-0.5,1.6-3,0.7-2.5-0.8c1.5-4.5,3-9,5.4-13c2.5-4.1,6-7,10-9.5c0.4-0.3,1-0.7,1.4-0.9
								c0,0,0.1-0.1,0.1-0.1c0.7,1.1,0.6,1.5-0.1,1.1c-0.2,0-0.6-0.2-0.8-0.3c-1.3-0.4-2.7-0.8-4-1.3c-2.2-0.7-4.4-1.6-6.4-2.9
								c-1.8-1.1-3.8-2.7-4.8-4.6c-0.9-1.8-0.5-4.3,1.7-5c1-0.3,2-0.1,3,0.1c1.3,0.2,2.7,0.3,4.1,0.4c2.9,0.1,5.9,0.1,8.8-0.1
								C939.9,778,939.8,780.6,938.1,780.7L938.1,780.7z"/>
						</g>
					</g>
					<g>
						<g>
							<path fill="#E8677D" d="M926.3,768.7c0.3,3,0.7,6,1.2,9.1c0.1,0.7-0.3,1.4-1,1.5c-0.7,0.1-1.4-0.3-1.6-1
								c-0.5-3-0.9-6-1.2-9.1c-0.1-0.7,0.2-1.4,1-1.5C925.3,767.6,926.2,768,926.3,768.7L926.3,768.7z"/>
						</g>
					</g>
					<g>
						<g>
							<path fill="#E8677D" d="M926.3,787.2c-0.9,2.2-3.1,3.5-5.5,3.3c-2.8-0.2-5-2.1-6.4-4.3c-1.5-2.2-2.5-4.7-3.4-7.2
								c-0.9-2.5-1.6-5.1-2.1-7.8c-0.3-1.6,2.3-2.2,2.6-0.5c0.7,4.2,2.1,8.2,4,12.1c0.9,1.8,2,3.6,3.9,4.6c1.5,0.8,3.9,0.7,4.6-1.1
								C924.4,784.8,926.9,785.6,926.3,787.2L926.3,787.2z"/>
						</g>
					</g>
					<g>
						<g>
							<path fill="#E8677D" d="M918.6,789.3c-0.4,2.3-2.1,3.9-4.4,4.4c-2.5,0.6-5-0.5-6.8-2.1c-2.1-1.8-3.4-4.2-4.8-6.4
								c-1.6-2.3-3.7-4.2-5.5-6.3c-1.1-1.3,0.9-3,2-1.7c1.4,1.6,3,3.1,4.4,4.7c1.4,1.7,2.5,3.7,3.8,5.6c1.2,1.6,2.8,3.3,4.9,3.8
								c1.5,0.3,3.7-0.4,4-2.1C916.2,787.5,918.9,787.7,918.6,789.3L918.6,789.3z"/>
						</g>
					</g>
					<g>
						<g>
							<path fill="#E8677D" d="M909.8,791.9c-0.5,1.5-1.4,2.9-2.7,3.8c-1.5,1-3.4,1.1-5.1,0.5c-3.3-1.1-6-3.7-7.4-6.8
								c-0.3-0.6-0.1-1.4,0.6-1.7c0.6-0.3,1.5-0.1,1.8,0.6c1,2.3,2.8,4.3,5.2,5.3c1.1,0.4,2.3,0.7,3.3,0.1c0.9-0.6,1.5-1.6,1.8-2.6
								C907.8,789.5,910.3,790.3,909.8,791.9L909.8,791.9z"/>
						</g>
					</g>
				</g>
			</g>
			<path fill="#FFC7D2" d="M1150.7,1461.2c-0.5,34.4-2.6,51.1-0.5,62c0,0.1,0.1,0.3,0.1,0.4c2.1,10.7,6.7,19.1,7.7,34
				c1,15.1-1,22.4-5.7,24c-4.7,1.6-96.9,0-96.9,0s-6.3-9.9,0-22.4c6.3-12.5,6.8-7.3,22.4-28.7c6.6-9,11.7-16.9,15.4-23.9
				c4.9-9.5,7.1-17.4,6.5-24.6c-0.6-7-5.3-68.5-9.3-121c-3.1-40.9-5.8-76.3-5.8-76.3l90.2-29.7c0,0-7.2,52.8-13.7,105.8
				C1155.7,1403.4,1150.9,1445.9,1150.7,1461.2z"/>
			<path fill="#FFC7D2" d="M999.1,1461.2c-0.5,34.4-2.4,51.1-0.5,62c0,0.1,0.1,0.3,0.1,0.4c2,10.7,6.2,19.1,7.2,34
				c1,15.1-1,22.4-5.3,24c-4.4,1.6-90.3,0-90.3,0s-5.8-9.9,0-22.4c5.8-12.5,6.3-7.3,20.9-28.7c6.2-9,11-16.9,14.3-23.9
				c4.6-9.5,6.6-17.4,6.1-24.6c-0.6-8-6.2-86.9-10.2-142.5c-2.2-31-3.9-54.8-3.9-54.8l84-29.7c0,0-6,47.4-11.8,97.4
				C1004.4,1397.6,999.3,1444.9,999.1,1461.2z"/>
			<path fill="#F49DB2" d="M937.4,1284.9l84-29.7c0,0-6,47.4-11.8,97.4c-23.6-3.6-46.6-8.1-68.3-12.9
				C939.1,1308.6,937.4,1284.9,937.4,1284.9z"/>
			<path fill="#F49DB2" d="M1174.7,1255.1c0,0-7.2,52.8-13.7,105.8c-23.1,1.6-46.8,1.5-70.6,0.2c-3.1-40.9-5.8-76.3-5.8-76.3
				L1174.7,1255.1z"/>
			<path fill="#F3F8FF" d="M1341.1,979.3c-1,2.1-89.6,26.1-94.5,26.4c-4.9,0.3-21.9-28.5-25.4-33.7c-3.5-5.2-26.1-42-26.1-42
				s-16.3,69.5-16.7,75.8c-0.3,6.2,6.6,44.8,7.6,50.4c0.4,2.1,3.4,12.1,7.1,25.7c5.8,21.6,13,52.1,13.3,74.5
				c0.5,36.5-13.6,53.7-15.6,65.1c-2.1,11.5-10.4,48.5-13,67.8c-2.6,19.3-1.6,34.9-7.3,41.7c-5.7,6.8-59.4,6.3-92.2-9.4
				c-32.8-15.6-150.1-5.2-152.2-13c-2.1-7.8,2.1-83.4,0-113.1c-2.1-29.7,2.6-92.8,14.6-102.7c10.5-8.7,49.2-38,60.5-49.4
				c1.6-1.7,2.7-2.9,3-3.7c2.6-6.3,5.7-67.8,5.7-67.8s-29.2,17.2-43.8,19.3c-14.6,2.1-30.4-15.1-33.4-26.1
				c-3-10.9-37.8-119.5-36-124.7c1.7-5.2,42.7-18.4,47.6-14.2c4.9,4.2,29.2,74.9,29.2,74.9s38.2-88.1,43.4-92.3
				c5.2-4.2,66.8-28.6,66.8-28.6s-1.5,25.5,16.5,23.4c18.1-2.1,44.5-27.1,44.5-27.1s87.2,44.8,95.6,66.2
				c8.3,21.4,32,105.1,37.2,106.1c5.2,1.1,49.7-14.9,53.9-9.4C1335.5,944.9,1342.1,977.2,1341.1,979.3z"/>
			<path fill="#3753B7" d="M1190.8,1221.5c-2.1,11.5-10.4,48.5-13,67.8c-2.6,19.3-1.6,34.9-7.3,41.7c-5.7,6.8-59.4,6.3-92.2-9.4
				c-32.8-15.6-150.1-5.2-152.2-13c-2.1-7.8,2.1-83.4,0-113.1c-2.1-29.7,2.6-92.8,14.6-102.7c10.5-8.7,49.2-38,60.5-49.4
				c21.6,0.1,45,2.5,70.3,8.3c63.3,14.4,100,21.8,121.7,30.2c5.8,21.6,13,52.1,13.3,74.5C1207,1192.8,1192.9,1210,1190.8,1221.5z"/>
			<path fill="#6983CC" d="M1011,1045.2c17.4,0.3,34.8,2.3,51.8,6c4.9,1.1,9.7,2.3,14.5,3.6c1.9,0.5,2.7-2.4,0.8-3
				c-17-4.7-34.4-7.7-52-9c-5-0.4-10.1-0.6-15.2-0.7C1009,1042.1,1009,1045.2,1011,1045.2L1011,1045.2z"/>
			<path fill="#6983CC" d="M1099.5,1060.2c6.4,2.4,12.8,4.7,19.2,7.1c1.9,0.7,2.7-2.3,0.8-3c-6.4-2.4-12.8-4.7-19.2-7.1
				C1098.4,1056.6,1097.6,1059.5,1099.5,1060.2L1099.5,1060.2z"/>
			<path fill="#6983CC" d="M948.1,1105c3.6,1.3,7.2,2.6,10.9,3.9c0.8,0.3,1.7-0.3,1.9-1.1c0.2-0.8-0.3-1.6-1.1-1.9
				c-3.6-1.3-7.2-2.6-10.9-3.9c-0.8-0.3-1.7,0.3-1.9,1.1C946.8,1104,947.3,1104.7,948.1,1105L948.1,1105z"/>
			<path fill="#6983CC" d="M969.5,1113.1c7.1,3.2,14.1,6.6,21,10.2c1.8,0.9,3.3-1.7,1.5-2.6c-6.9-3.5-13.9-6.9-21-10.2
				C969.3,1109.6,967.7,1112.2,969.5,1113.1L969.5,1113.1z"/>
			<path fill="#6983CC" d="M1006.5,1121.7c12.6,9.4,27.3,15.7,42.5,19.7c16.6,4.3,33.7,5.9,50.8,6.4c10.2,0.3,20.4,0.2,30.6,0.1
				c2,0,2-3.1,0-3.1c-17.7,0.1-35.4,0.3-53-1.6c-15.9-1.7-31.8-5-46.5-11.3c-8.1-3.4-15.7-7.7-22.8-13
				C1006.5,1117.9,1005,1120.5,1006.5,1121.7L1006.5,1121.7z"/>
			<path fill="#6983CC" d="M1160.6,1144.3c1.2-0.2,2.3-0.5,3.3-1.1c0.9-0.5,1.8-1.2,2.4-2c0.3-0.3,0.4-0.6,0.4-1.1
				c0-0.4-0.2-0.8-0.4-1.1c-0.3-0.3-0.7-0.5-1.1-0.4c-0.4,0-0.8,0.1-1.1,0.4c-0.4,0.4-0.8,0.8-1.2,1.2c0.1-0.1,0.2-0.2,0.3-0.2
				c-0.5,0.4-1.1,0.7-1.6,1c0.1-0.1,0.2-0.1,0.4-0.2c-0.6,0.2-1.2,0.4-1.8,0.5c0.1,0,0.3,0,0.4-0.1c0,0,0,0-0.1,0
				c-0.4,0.1-0.8,0.1-1.1,0.4c-0.3,0.3-0.5,0.7-0.4,1.1c0,0.4,0.1,0.8,0.4,1.1C1159.8,1144.2,1160.2,1144.4,1160.6,1144.3
				L1160.6,1144.3z"/>
			<g>
				<path fill="#A6CAF4" d="M971.8,900.9c4.4,12.8,8.1,25.9,10.8,39.1c0.4,1.9,3.4,1.1,3-0.8c-2.8-13.3-6.4-26.3-10.8-39.1
					C974.1,898.3,971.2,899.1,971.8,900.9L971.8,900.9z"/>
				<path fill="#A6CAF4" d="M1016.9,850.8c-2.1,8-4.2,15.9-6.3,23.9c-2,7.7-4.1,15.4-5.6,23.3c-3,15.5-3,31.2,0.3,46.6
					c1.8,8.6,4.2,17.2,3.4,26c-0.2,2,2.9,1.9,3.1,0c0.7-7.8-1-15.4-2.6-23c-1.7-7.7-3-15.4-3.3-23.3c-0.5-15.8,3-31,7-46.1
					c2.3-8.9,4.6-17.7,7-26.6C1020.4,849.7,1017.4,848.9,1016.9,850.8L1016.9,850.8z"/>
				<path fill="#A6CAF4" d="M1014.1,957.4c4.3,2.5,8.8,4.5,13.6,6.1c1.9,0.6,2.7-2.4,0.8-3c-4.5-1.4-8.8-3.4-12.8-5.8
					C1013.9,953.7,1012.4,956.4,1014.1,957.4L1014.1,957.4z"/>
				<path fill="#A6CAF4" d="M1042.6,966.6c19.6,1.8,39.4,2.2,59.1,1.3c2-0.1,2-3.2,0-3.1c-19.7,0.9-39.5,0.5-59.1-1.3
					C1040.6,963.4,1040.6,966.4,1042.6,966.6L1042.6,966.6z"/>
				<path fill="#A6CAF4" d="M1202.2,857.3c-3.8,6.1-7,12.5-9.6,19.1c-0.3,0.8,0.3,1.7,1.1,1.9c0.9,0.2,1.6-0.3,1.9-1.1
					c2.5-6.4,5.7-12.5,9.3-18.4C1205.9,857.2,1203.2,855.6,1202.2,857.3L1202.2,857.3z"/>
				<path fill="#A6CAF4" d="M1190.5,885.8c-3.6,7.3-6.8,14.8-5.8,23.2c1,7.9,4.7,15.1,9.4,21.4c1.2,1.6,3.8,0,2.6-1.5
					c-4.3-5.8-8-12.5-8.9-19.8c-1-7.8,2-14.8,5.4-21.6C1194,885.6,1191.4,884,1190.5,885.8L1190.5,885.8z"/>
				<path fill="#A6CAF4" d="M1194.5,928.6c-4.6-0.4-9.1-0.7-13.7-0.7c-2,0-2,3,0,3.1c4.6,0,9.2,0.3,13.7,0.7
					c0.8,0.1,1.5-0.8,1.5-1.5C1196,929.3,1195.3,928.7,1194.5,928.6L1194.5,928.6z"/>
				<path fill="#A6CAF4" d="M1276.5,948c-5.7,6-11.3,12.1-17,18.1c-1.3,1.4,0.8,3.6,2.2,2.2c5.7-6,11.3-12.1,17-18.1
					C1280.1,948.7,1277.9,946.5,1276.5,948L1276.5,948z"/>
				<path fill="#A6CAF4" d="M1072.4,794.5c-0.3,3.8,0.4,7.7,1.9,11.2c0.3,0.8,1.4,0.9,2.1,0.5c0.8-0.5,0.9-1.3,0.5-2.1
					c-1.3-3-1.8-6.3-1.5-9.6c0.1-0.8-0.8-1.5-1.5-1.5C1073,792.9,1072.4,793.6,1072.4,794.5L1072.4,794.5z"/>
				<path fill="#A6CAF4" d="M1077.7,812.4c3.6,3,7.3,5.9,11.5,7.9c4.5,2.2,9.3,3.1,14.3,2.9c5.1-0.2,10.2-1.2,15.2-2.4
					c4.9-1.2,9.7-2.6,14.4-4.4c5.3-2,10.5-4.3,15.5-7c1.7-0.9,0.2-3.6-1.5-2.6c-8.3,4.5-17.1,8-26.2,10.4c-4.7,1.2-9.5,2.3-14.4,2.8
					c-4.7,0.5-9.4,0.3-13.9-1.5c-4.7-1.8-8.8-5-12.7-8.2C1078.3,809,1076.1,811.2,1077.7,812.4L1077.7,812.4z"/>
				<path fill="#A6CAF4" d="M1067.4,812.2c4.7,15.9,13.1,30.5,24.4,42.6c1.4,1.4,3.5-0.7,2.2-2.2c-11-11.7-19.1-25.8-23.6-41.2
					C1069.8,809.5,1066.9,810.3,1067.4,812.2L1067.4,812.2z"/>
				<path fill="#A6CAF4" d="M1174.8,1010.5c-11.4,11.2-23.9,21.2-37.4,29.8c-1.7,1.1-0.1,3.7,1.5,2.6c13.7-8.7,26.5-18.9,38-30.2
					C1178.4,1011.3,1176.2,1009.2,1174.8,1010.5L1174.8,1010.5z"/>
				<path fill="#A6CAF4" d="M1177.1,1012.3c-4.6,7.8-9.6,15.2-15.1,22.4c-0.5,0.7-0.1,1.7,0.5,2.1c0.8,0.5,1.6,0.1,2.1-0.5
					c5.5-7.2,10.5-14.6,15.1-22.4C1180.7,1012.1,1178.1,1010.6,1177.1,1012.3L1177.1,1012.3z"/>
			</g>
			<path fill="#6983CC" d="M1011.3,1228.1c-2.8,16.6-5,33.3-6.6,50c-0.4,4.8-0.8,9.6-1.2,14.5c-0.1,2,2.9,2,3.1,0
				c1.5-21.4,4-42.6,7.6-63.7C1014.6,1227,1011.6,1226.2,1011.3,1228.1L1011.3,1228.1z"/>
			<path fill="#6983CC" d="M1009,1286c-0.8,5.2-1.6,10.4-2.4,15.6c-0.1,0.8,0.2,1.6,1.1,1.9c0.7,0.2,1.8-0.2,1.9-1.1
				c0.8-5.2,1.6-10.4,2.4-15.6c0.1-0.8-0.2-1.6-1.1-1.9C1010.1,1284.7,1009.1,1285.2,1009,1286L1009,1286z"/>
			<path fill="#6983CC" d="M1050.8,1182.4c2.3,27.5,4.9,54.9,8,82.3c0.9,7.7,1.8,15.5,2.7,23.2c0.2,1.9,3.3,2,3.1,0
				c-3.3-27.4-6.2-54.8-8.7-82.2c-0.7-7.7-1.4-15.5-2-23.3C1053.7,1180.5,1050.7,1180.5,1050.8,1182.4L1050.8,1182.4z"/>
			<g>
				<path fill="#CDDFF9" d="M1077.1,814.9c0,0,12.4,36.6,29.1,36.6s44.8-37,40-36.6C1141.3,815.3,1116.3,830.6,1077.1,814.9z"/>
				<path fill="#CDDFF9" d="M1015.5,963.5c0,0,90.5,49.8,105,48c14.5-1.8,50.3-39.5,50.3-39.5S1079.8,983.7,1015.5,963.5z"/>
				<path fill="#CDDFF9" d="M1013.8,968.7l12.4,46.6l9.9,9C1036.2,1024.3,1027.4,993.5,1013.8,968.7z"/>
			</g>
			<path fill="#1E377C" d="M1017.8,1133.4c0,0,31.8,36,64.1,38.6c32.3,2.6,68.4-13,54.8-16.2
				C1123.1,1152.7,1045.1,1143.5,1017.8,1133.4z"/>
			<path fill="#1E377C" d="M1152.2,1581.6c-4.7,1.6-96.9,0-96.9,0s-6.3-9.9,0-22.4c6.3-12.5,6.8-7.3,22.4-28.7
				c6.6-9,11.7-16.9,15.4-23.9c1.1-0.3,2.1-0.4,3.1-0.4c6.2,0,27.6-4.7,32.6,2.6c5,7.3,6.5,13.8,13.3,15.1c2.3,0.4,5.2,0.2,8.2-0.4
				c2.1,10.7,6.7,19.1,7.7,34C1159,1572.8,1156.9,1580.1,1152.2,1581.6z"/>
			<path fill="#1E377C" d="M1000.5,1581.6c-4.4,1.6-90.3,0-90.3,0s-5.8-9.9,0-22.4c5.8-12.5,6.3-7.3,20.9-28.7
				c6.2-9,10.9-16.9,14.3-23.9c1-0.3,2-0.4,2.9-0.4c5.8,0,25.7-4.7,30.3,2.6c4.6,7.3,6.1,13.8,12.4,15.1c2.1,0.4,4.9,0.2,7.6-0.4
				c2,10.7,6.2,19.1,7.2,34C1006.8,1572.8,1004.9,1580.1,1000.5,1581.6z"/>
		</g>
		<g>
			<path fill="#FFC7D2" d="M1408.5,938.3c0,0-43-6.4-52.7-7.8c-9.7-1.3-29.8,3.5-35.4,3.1c-5.6-0.4-1.8,2.4,0.4,5.3
				c2.2,2.9,17.1,6.2,17.1,6.2s-8.6,2.2-10.7,3.2c-2.1,1.1-29.7,19.1-28.6,22.9c1.1,3.8,2.6,6.1,4.8,6.2c2.1,0.1,3.7-0.3,3.7-0.3
				s1.2,5.6,3.2,6.9c2,1.3,9.3-0.7,9.3-0.7s1.5,5.7,5.3,5.9c3.8,0.2,26.8-8.2,28.4-8.3c1.6-0.1,10.8,7.5,26.7,6.5
				c15.9-1,28.4-11.8,28.4-11.8L1408.5,938.3z"/>
			<path fill="#FFB400" d="M1555.1,717.7c-5.1-7.6-14.9-10.5-23.4-7.2c-17.3,6.7-46.1,22.9-43.1,55.5
				c4.2,46.3,26.4,154.7,26.4,154.7c0,0-92.9,8.9-108.5,11.7c-15.7,2.8-17.8,1.7-16.4,13c1.4,11.3,3.5,43.9,5.6,44.7
				c2.1,0.9,79.3-1.7,129.2-4.6c50-2.9,65.9-14.7,70.4-29.3s4.7-31-1.2-66.4C1589,858.5,1580.9,755.8,1555.1,717.7z"/>
			<g>
				<g>
					<g>
						<path fill="#E8677D" d="M1308.5,978.6c10.3-8.6,21.6-15.7,33.6-21c1.9-0.8,0.8-4.1-1.1-3.3c-12.2,5.5-23.8,12.7-34.3,21.5
							C1305.1,977.1,1306.9,980,1308.5,978.6L1308.5,978.6z"/>
					</g>
				</g>
				<g>
					<g>
						<path fill="#E8677D" d="M1319.4,986.3c10.5-6.6,21.2-13.1,32.9-16.6c1.9-0.6,0.8-3.9-1.1-3.3c-12,3.6-22.9,10.3-33.6,17
							C1315.9,984.5,1317.7,987.4,1319.4,986.3L1319.4,986.3z"/>
					</g>
				</g>
			</g>
			<g>
				<path fill="#EF835E" d="M1514.4,922c15.8,3.2,28.8,13.6,41.1,23.5c1.5,1.2,3.5-1.1,1.9-2.3c-12.7-10.2-26.1-20.8-42.5-24.1
					C1513,918.6,1512.5,921.6,1514.4,922L1514.4,922z"/>
				<path fill="#EF835E" d="M1507,920.6c5.2,4.7,10.6,9.3,16.2,13.7c1.5,1.2,3.5-1.1,1.9-2.3c-5.5-4.4-10.9-8.9-16.2-13.7
					C1507.5,917,1505.6,919.3,1507,920.6L1507,920.6z"/>
				<path fill="#EF835E" d="M1508.3,721.7c-4.6,1.1-8.6,5-11.6,8.6c-3,3.7-5.2,7.9-6.8,12.3c-1.6,4.5-2.8,9.1-2.7,13.9
					c0.2,8.9,1.3,17.9,2.4,26.7c1.6,14.1,3.6,28.2,5.7,42.2c2.4,15.8,4.9,31.6,7.8,47.4c2.6,14.1,5.4,28.2,8.9,42.2
					c0.4,1.5,0.7,2.9,1.1,4.4c0.5,1.9,3.3,0.8,2.8-1c-3.5-13.2-6.2-26.6-8.7-40c-2.9-15.4-5.5-30.9-7.9-46.5
					c-2.2-14.3-4.2-28.7-6-43.1c-1.2-9.8-2.4-19.6-2.9-29.5c-0.1-1.4-0.1-2.7-0.1-4.1c0-0.3,0-0.5,0-0.8c0-0.2,0.1-1,0-0.4
					c0-0.6,0.1-1.2,0.2-1.8c1.5-8.9,5.4-18,12.4-24c1.9-1.7,4-3.1,6.5-3.7C1511.2,724.1,1510.2,721.2,1508.3,721.7L1508.3,721.7z"/>
			</g>
		</g>
	</g>
</g>
<g>
	<path fill="#8CB8ED" d="M1851,1597.3H112c-2.3,0-4.2-1.9-4.2-4.2v-7.4c0-2.3,1.9-4.2,4.2-4.2h1739c2.3,0,4.2,1.9,4.2,4.2v7.4
		C1855.2,1595.5,1853.3,1597.3,1851,1597.3z"/>
	<g>
		<rect x="217.6" y="1619.6" fill="#8CB8ED" width="631.7" height="6.4"/>
		<rect x="915" y="1619.6" fill="#8CB8ED" width="878.3" height="6.4"/>
	</g>
</g>
<g>
	<path fill="#1E377C" d="M32.7,652.5C71.3,788.2,170.8,823.8,195,830.6c1.8,0.5,3.6,0.7,5.4,0.7h34.4c-1.8,0-3.6-0.2-5.4-0.7
		c-24.2-6.8-123.8-42.4-162.3-178.1C37.3,547.7,33.9,494.3,34.4,471.9c0.2-8,4.1-15.3,10.3-19.5l178.6-119.7
		c3.5-2.3,7.4-3.5,11.4-3.5h-34.4c-3.9,0-7.9,1.2-11.4,3.5L10.4,452.4c-6.2,4.2-10.1,11.5-10.3,19.5C-0.5,494.3,3,547.7,32.7,652.5z
		"/>
	<path fill="#3753B7" d="M67.1,652.5c38.5,135.7,138.1,171.3,162.3,178.1c1.8,0.5,3.6,0.7,5.4,0.7c1.8,0,3.6-0.2,5.4-0.7
		c24.2-6.8,123.8-42.4,162.3-178.1c29.8-104.8,33.2-158.2,32.7-180.6c-0.2-8-4.1-15.3-10.3-19.5L246.1,332.7
		c-3.5-2.3-7.4-3.5-11.4-3.5c-3.9,0-7.9,1.2-11.4,3.5L44.7,452.4c-6.2,4.2-10.1,11.5-10.3,19.5C33.9,494.3,37.3,547.7,67.1,652.5z"
		/>
	<path fill="#A4C931" d="M234.7,353.6v227.1h162.1c14.1-62.2,15.3-95.2,15-108.3c0-0.4-0.1-0.7-0.2-0.9L236.3,354.1
		C235.8,353.8,235.3,353.6,234.7,353.6z"/>
	<path fill="#8AB52D" d="M72.7,580.7h162.1V353.6c-0.6,0-1.1,0.2-1.6,0.5L57.9,471.6c-0.1,0.1-0.2,0.4-0.2,0.8
		C57.3,485.5,58.6,518.5,72.7,580.7z"/>
	<path fill="#8AB52D" d="M234.7,580.7v227.1c0.3,0,0.5,0,0.8-0.1c11.5-3.4,37.7-13,65.6-35.8c37.3-30.4,63.8-72.7,78.9-125.7
		c7-24.7,12.5-46.4,16.8-65.4H234.7z"/>
	<path fill="#6BA336" d="M72.7,580.7c4.3,19,9.8,40.7,16.8,65.4c15,53,41.6,95.3,78.9,125.7c27.9,22.8,54.1,32.4,65.6,35.8
		c0.3,0.1,0.5,0.1,0.8,0.1V580.7H72.7z"/>
	<path fill="#F3F8FF" d="M212.4,637.6c-6.6,0-12.8-2.4-17.8-6.8l-51.3-46.1c-7.2-6.4-7.8-17.5-1.3-24.6c6.4-7.2,17.5-7.8,24.6-1.3
		l45.1,40.5l89.7-102.4c6.3-7.2,17.4-8,24.6-1.6c7.2,6.3,8,17.4,1.6,24.6l-95.2,108.6c-4.7,5.4-11.3,8.6-18.5,9
		C213.5,637.6,212.9,637.6,212.4,637.6z"/>
	<g>
		<path fill="#417F73" d="M253.5,783c0.2,0,0.4-0.1,0.6-0.2c58.1-40.8,86.6-87.9,100.3-120.2c14.8-35,15.9-60.8,16-61.1
			c0-0.6-0.4-1.1-1-1.1c-0.6,0-1.1,0.4-1.1,1c0,0.3-1.1,25.7-15.8,60.4c-13.6,32-41.9,78.7-99.5,119.1c-0.5,0.3-0.6,1-0.3,1.5
			C252.8,782.9,253.1,783,253.5,783z"/>
		<path fill="#417F73" d="M381.2,555.2c0.5,0,1-0.4,1.1-0.9l11.1-69.8c0.1-0.6-0.3-1.2-0.9-1.2c-0.6-0.1-1.2,0.3-1.2,0.9l-11.1,69.8
			c-0.1,0.6,0.3,1.2,0.9,1.2C381,555.2,381.1,555.2,381.2,555.2z"/>
		<path fill="#417F73" d="M117.4,670.2c0.2,0,0.3,0,0.5-0.1c0.5-0.3,0.8-0.9,0.5-1.5c-17.8-38-24.8-70.7-24.9-71
			c-0.1-0.6-0.7-1-1.3-0.8c-0.6,0.1-1,0.7-0.8,1.3c0.1,0.3,7.1,33.2,25,71.5C116.6,670,117,670.2,117.4,670.2z"/>
	</g>
</g>
</svg>
